<?xml version="1.0" encoding="UTF-8" standalone="no"?>
<svg
   id="Layer_1"
   data-name="Layer 1"
   viewBox="0 0 32 32"
   version="1.1"
   sodipodi:docname="favicon-transtelemetrix - copia.svg"
   inkscape:version="1.3.2 (091e20e, 2023-11-25, custom)"
   xmlns:inkscape="http://www.inkscape.org/namespaces/inkscape"
   xmlns:sodipodi="http://sodipodi.sourceforge.net/DTD/sodipodi-0.dtd"
   xmlns="http://www.w3.org/2000/svg"
   xmlns:svg="http://www.w3.org/2000/svg">
  <sodipodi:namedview
     id="namedview13"
     pagecolor="#ffffff"
     bordercolor="#000000"
     borderopacity="0.25"
     inkscape:showpageshadow="2"
     inkscape:pageopacity="0.0"
     inkscape:pagecheckerboard="0"
     inkscape:deskcolor="#d1d1d1"
     inkscape:zoom="22.627417"
     inkscape:cx="11.932427"
     inkscape:cy="19.467534"
     inkscape:window-width="1920"
     inkscape:window-height="1009"
     inkscape:window-x="1912"
     inkscape:window-y="-8"
     inkscape:window-maximized="1"
     inkscape:current-layer="Layer_1" />
  <defs
     id="defs1">
    <style
       id="style1">.cls-1{fill:#bbbbb1;}.cls-2{fill:#457fe5;}</style>
  </defs>
  <path
     class="cls-1"
     d="M25.39,27.4a1.94,1.94,0,1,1,1.94-1.93A1.93,1.93,0,0,1,25.39,27.4Zm0-3.51A1.58,1.58,0,1,0,27,25.47,1.58,1.58,0,0,0,25.39,23.89Z"
     id="path1" />
  <path
     class="cls-1"
     d="M25.39,21.09a1.94,1.94,0,1,1,1.94-1.93A1.93,1.93,0,0,1,25.39,21.09Zm0-3.51A1.58,1.58,0,1,0,27,19.16,1.58,1.58,0,0,0,25.39,17.58Z"
     id="path2" />
  <path
     class="cls-1"
     d="M25.39,8.47a1.94,1.94,0,1,1,1.94-1.94A1.93,1.93,0,0,1,25.39,8.47Zm0-3.51A1.58,1.58,0,1,0,27,6.53,1.57,1.57,0,0,0,25.39,5Z"
     id="path3" />
  <path
     class="cls-1"
     d="M19.13,27.4a1.94,1.94,0,1,1,1.94-1.93A1.93,1.93,0,0,1,19.13,27.4Zm0-3.51a1.58,1.58,0,1,0,1.58,1.58A1.58,1.58,0,0,0,19.13,23.89Z"
     id="path4" />
  <path
     class="cls-1"
     d="M19.13,14.78a1.94,1.94,0,1,1,1.94-1.94A1.93,1.93,0,0,1,19.13,14.78Zm0-3.51a1.58,1.58,0,1,0,1.58,1.57A1.57,1.57,0,0,0,19.13,11.27Z"
     id="path5" />
  <path
     class="cls-1"
     d="M19.13,8.47a1.94,1.94,0,1,1,1.94-1.94A1.93,1.93,0,0,1,19.13,8.47Zm0-3.51a1.58,1.58,0,1,0,1.58,1.57A1.57,1.57,0,0,0,19.13,5Z"
     id="path6" />
  <path
     class="cls-1"
     d="M12.87,27.4a1.94,1.94,0,1,1,1.93-1.93A1.94,1.94,0,0,1,12.87,27.4Zm0-3.51a1.58,1.58,0,1,0,1.58,1.58A1.58,1.58,0,0,0,12.87,23.89Z"
     id="path7" />
  <path
     class="cls-1"
     d="M12.87,21.09a1.94,1.94,0,1,1,1.93-1.93A1.94,1.94,0,0,1,12.87,21.09Zm0-3.51a1.58,1.58,0,1,0,1.58,1.58A1.58,1.58,0,0,0,12.87,17.58Z"
     id="path8" />
  <path
     class="cls-1"
     d="M12.87,8.47A1.94,1.94,0,1,1,14.8,6.53,1.94,1.94,0,0,1,12.87,8.47Zm0-3.51a1.58,1.58,0,1,0,1.58,1.57A1.57,1.57,0,0,0,12.87,5Z"
     id="path9" />
  <path
     class="cls-1"
     d="M6.61,27.4a1.94,1.94,0,1,1,1.93-1.93A1.94,1.94,0,0,1,6.61,27.4Zm0-3.51a1.58,1.58,0,1,0,1.58,1.58A1.58,1.58,0,0,0,6.61,23.89Z"
     id="path10" />
  <path
     class="cls-1"
     d="M6.61,14.78a1.94,1.94,0,1,1,1.93-1.94A1.94,1.94,0,0,1,6.61,14.78Zm0-3.51a1.58,1.58,0,1,0,1.58,1.57A1.57,1.57,0,0,0,6.61,11.27Z"
     id="path11" />
  <path
     class="cls-1"
     d="M6.61,8.47A1.94,1.94,0,1,1,8.54,6.53,1.94,1.94,0,0,1,6.61,8.47ZM6.61,5A1.58,1.58,0,1,0,8.19,6.53,1.57,1.57,0,0,0,6.61,5Z"
     id="path12" />
  <path
     class="cls-2"
     d="M25.39,11.09a1.75,1.75,0,0,0-1.75,1.75A1.79,1.79,0,0,0,24,14l-3.8,3.83a1.75,1.75,0,0,0-2.2,0L14.23,14a1.76,1.76,0,1,0-2.72,0l-3.8,3.83a1.76,1.76,0,1,0,.65,1.37A1.79,1.79,0,0,0,8,18l3.8-3.83a1.75,1.75,0,0,0,2.2,0L17.77,18a1.76,1.76,0,1,0,2.72,0l3.8-3.83a1.76,1.76,0,1,0,1.1-3.12Z"
     id="path13" />
  <text
     xml:space="preserve"
     style="font-size:2.54127px;fill:#000000;stroke-width:1.90597"
     x="4.0047131"
     y="30.999002"
     id="text13"
     transform="scale(1.0025086,0.99749767)"><tspan
       sodipodi:role="line"
       id="tspan13"
       x="4.0047131"
       y="30.999002"
       style="font-size:2.54127px;stroke-width:1.90597" /></text>
  <text
     xml:space="preserve"
     style="font-style:normal;font-variant:normal;font-weight:normal;font-stretch:normal;font-size:2.61448px;line-height:0;font-family:'Neuropol X';-inkscape-font-specification:'Neuropol X';fill:#457fe5;stroke-width:1.30723;fill-opacity:1"
     x="2.5192163"
     y="24.966181"
     id="text14"
     transform="scale(0.80431932,1.2432873)"><tspan
       sodipodi:role="line"
       id="tspan14"
       x="2.5192163"
       y="24.966181"
       style="font-size:2.61448px;stroke-width:1.30723;fill:#457fe5;fill-opacity:1">TRANSTELEMETRIX</tspan></text>
</svg>
