<svg id="Layer_1" data-name="Layer 1" xmlns="http://www.w3.org/2000/svg" viewBox="0 0 32 32"><defs><style>.cls-1{fill:#bbbbb1;}.cls-2{fill:#457fe5;}</style></defs><path class="cls-1" d="M25.39,27.4a1.94,1.94,0,1,1,1.94-1.93A1.93,1.93,0,0,1,25.39,27.4Zm0-3.51A1.58,1.58,0,1,0,27,25.47,1.58,1.58,0,0,0,25.39,23.89Z"/><path class="cls-1" d="M25.39,21.09a1.94,1.94,0,1,1,1.94-1.93A1.93,1.93,0,0,1,25.39,21.09Zm0-3.51A1.58,1.58,0,1,0,27,19.16,1.58,1.58,0,0,0,25.39,17.58Z"/><path class="cls-1" d="M25.39,8.47a1.94,1.94,0,1,1,1.94-1.94A1.93,1.93,0,0,1,25.39,8.47Zm0-3.51A1.58,1.58,0,1,0,27,6.53,1.57,1.57,0,0,0,25.39,5Z"/><path class="cls-1" d="M19.13,27.4a1.94,1.94,0,1,1,1.94-1.93A1.93,1.93,0,0,1,19.13,27.4Zm0-3.51a1.58,1.58,0,1,0,1.58,1.58A1.58,1.58,0,0,0,19.13,23.89Z"/><path class="cls-1" d="M19.13,14.78a1.94,1.94,0,1,1,1.94-1.94A1.93,1.93,0,0,1,19.13,14.78Zm0-3.51a1.58,1.58,0,1,0,1.58,1.57A1.57,1.57,0,0,0,19.13,11.27Z"/><path class="cls-1" d="M19.13,8.47a1.94,1.94,0,1,1,1.94-1.94A1.93,1.93,0,0,1,19.13,8.47Zm0-3.51a1.58,1.58,0,1,0,1.58,1.57A1.57,1.57,0,0,0,19.13,5Z"/><path class="cls-1" d="M12.87,27.4a1.94,1.94,0,1,1,1.93-1.93A1.94,1.94,0,0,1,12.87,27.4Zm0-3.51a1.58,1.58,0,1,0,1.58,1.58A1.58,1.58,0,0,0,12.87,23.89Z"/><path class="cls-1" d="M12.87,21.09a1.94,1.94,0,1,1,1.93-1.93A1.94,1.94,0,0,1,12.87,21.09Zm0-3.51a1.58,1.58,0,1,0,1.58,1.58A1.58,1.58,0,0,0,12.87,17.58Z"/><path class="cls-1" d="M12.87,8.47A1.94,1.94,0,1,1,14.8,6.53,1.94,1.94,0,0,1,12.87,8.47Zm0-3.51a1.58,1.58,0,1,0,1.58,1.57A1.57,1.57,0,0,0,12.87,5Z"/><path class="cls-1" d="M6.61,27.4a1.94,1.94,0,1,1,1.93-1.93A1.94,1.94,0,0,1,6.61,27.4Zm0-3.51a1.58,1.58,0,1,0,1.58,1.58A1.58,1.58,0,0,0,6.61,23.89Z"/><path class="cls-1" d="M6.61,14.78a1.94,1.94,0,1,1,1.93-1.94A1.94,1.94,0,0,1,6.61,14.78Zm0-3.51a1.58,1.58,0,1,0,1.58,1.57A1.57,1.57,0,0,0,6.61,11.27Z"/><path class="cls-1" d="M6.61,8.47A1.94,1.94,0,1,1,8.54,6.53,1.94,1.94,0,0,1,6.61,8.47ZM6.61,5A1.58,1.58,0,1,0,8.19,6.53,1.57,1.57,0,0,0,6.61,5Z"/><path class="cls-2" d="M25.39,11.09a1.75,1.75,0,0,0-1.75,1.75A1.79,1.79,0,0,0,24,14l-3.8,3.83a1.75,1.75,0,0,0-2.2,0L14.23,14a1.76,1.76,0,1,0-2.72,0l-3.8,3.83a1.76,1.76,0,1,0,.65,1.37A1.79,1.79,0,0,0,8,18l3.8-3.83a1.75,1.75,0,0,0,2.2,0L17.77,18a1.76,1.76,0,1,0,2.72,0l3.8-3.83a1.76,1.76,0,1,0,1.1-3.12Z"/></svg>