<?xml version="1.0" encoding="utf-8"?>
<!-- Generator: Adobe Illustrator 26.2.1, SVG Export Plug-In . SVG Version: 6.00 Build 0)  -->
<svg version="1.1" id="Layer_1" xmlns="http://www.w3.org/2000/svg" xmlns:xlink="http://www.w3.org/1999/xlink" x="0px" y="0px"
	 viewBox="0 0 330.53 64.07" style="enable-background:new 0 0 330.53 64.07;" xml:space="preserve">
<style type="text/css">
	.st0{fill:#FFFFFF;}
	.st1{fill:#457FE5;}
	.st2{fill:#1D1D1B;}
	.st3{fill:#BABBB1;}
	.st4{fill:#BBBBB1;}
	.st5{fill:#2E5599;}
	.st6{fill:#FDFDFE;}
	.st7{fill:#0B151F;}
	.st8{fill:#BCD4DF;}
	.st9{fill:#38718E;}
	.st10{fill:#A6B4C0;}
	.st11{fill:#1A2F56;}
	.st12{fill:#244278;}
	.st13{fill:#E7F5FE;}
	.st14{fill:#B4D6F9;}
	.st15{fill:#264E71;}
	.st16{fill:#C9D0EC;}
	.st17{fill:#81B6FD;}
	.st18{fill:#2A4A7C;}
	.st19{fill:#8ED1EE;}
</style>
<g>
	<path class="st2" d="M18.28,46.17c-0.09,0-0.17-0.01-0.25-0.05c-0.08-0.03-0.14-0.07-0.2-0.12c-0.06-0.05-0.11-0.12-0.14-0.19
		c-0.03-0.07-0.05-0.15-0.05-0.23c0-0.08,0.02-0.16,0.05-0.23c0.04-0.07,0.08-0.14,0.14-0.19c0.06-0.05,0.12-0.1,0.2-0.13
		c0.08-0.03,0.16-0.05,0.25-0.05h4.07c0.09,0,0.17,0.02,0.25,0.05c0.08,0.03,0.15,0.07,0.2,0.13c0.06,0.05,0.11,0.12,0.14,0.19
		c0.03,0.07,0.05,0.15,0.05,0.23c0,0.08-0.02,0.16-0.05,0.23c-0.04,0.07-0.08,0.13-0.14,0.19c-0.06,0.05-0.12,0.09-0.2,0.12
		c-0.08,0.03-0.16,0.05-0.25,0.05h-1.19v4.43c0,0.12-0.02,0.24-0.07,0.34c-0.04,0.1-0.1,0.19-0.17,0.28
		c-0.08,0.08-0.16,0.14-0.27,0.18c-0.1,0.04-0.21,0.07-0.32,0.07c-0.11,0-0.22-0.02-0.32-0.07c-0.1-0.04-0.18-0.11-0.26-0.18
		c-0.07-0.08-0.14-0.17-0.18-0.28c-0.04-0.11-0.06-0.22-0.06-0.34v-4.43H18.28z M18.28,46.17"/>
	<path class="st2" d="M31.2,51.48c-0.15,0-0.28-0.03-0.38-0.09c-0.1-0.06-0.18-0.14-0.25-0.24c-0.06-0.1-0.11-0.21-0.14-0.34
		c-0.03-0.13-0.04-0.25-0.04-0.38v-4.26c0-0.17,0.01-0.32,0.03-0.47c0.02-0.14,0.07-0.27,0.14-0.38c0.07-0.1,0.18-0.18,0.31-0.25
		C31.01,45.03,31.2,45,31.43,45h2.87c0.09,0,0.17,0.02,0.24,0.05c0.08,0.03,0.14,0.07,0.2,0.12c0.06,0.05,0.1,0.11,0.13,0.18
		c0.04,0.07,0.05,0.15,0.05,0.23c0,0.08-0.02,0.16-0.05,0.23c-0.03,0.07-0.07,0.13-0.13,0.18c-0.05,0.05-0.12,0.09-0.2,0.12
		c-0.07,0.03-0.16,0.05-0.24,0.05H32v1.45h2.1c0.09,0,0.16,0.02,0.24,0.04c0.07,0.03,0.14,0.07,0.2,0.12
		c0.05,0.06,0.1,0.12,0.13,0.19c0.03,0.07,0.05,0.15,0.05,0.23c0,0.08-0.02,0.15-0.05,0.22c-0.03,0.07-0.08,0.13-0.13,0.18
		c-0.06,0.05-0.13,0.09-0.2,0.12c-0.08,0.03-0.16,0.04-0.24,0.04H32v1.56h2.41c0.08,0,0.15,0.02,0.22,0.05
		c0.07,0.03,0.13,0.07,0.19,0.12c0.05,0.05,0.09,0.11,0.12,0.18c0.03,0.07,0.04,0.14,0.04,0.23c0,0.08-0.02,0.16-0.04,0.22
		c-0.03,0.07-0.08,0.13-0.12,0.18c-0.05,0.05-0.12,0.09-0.19,0.12c-0.07,0.03-0.14,0.04-0.22,0.04H31.2z M31.2,51.48"/>
	<path class="st2" d="M46.49,50.29c0.08,0,0.16,0.02,0.23,0.05c0.07,0.03,0.14,0.08,0.19,0.13c0.05,0.05,0.09,0.12,0.12,0.19
		c0.03,0.07,0.05,0.15,0.05,0.23c0,0.08-0.02,0.16-0.05,0.23c-0.03,0.07-0.07,0.14-0.12,0.19c-0.05,0.05-0.12,0.09-0.19,0.12
		c-0.07,0.03-0.15,0.05-0.23,0.05h-3.06c-0.16,0-0.29-0.04-0.4-0.11c-0.11-0.07-0.19-0.16-0.25-0.28c-0.07-0.11-0.11-0.24-0.14-0.39
		c-0.02-0.15-0.04-0.29-0.04-0.45v-4.4c0-0.12,0.02-0.24,0.06-0.34c0.04-0.11,0.1-0.2,0.18-0.28c0.07-0.08,0.16-0.14,0.26-0.18
		c0.1-0.05,0.21-0.07,0.32-0.07c0.12,0,0.23,0.02,0.32,0.07c0.1,0.04,0.19,0.1,0.26,0.18c0.08,0.08,0.14,0.17,0.18,0.28
		c0.04,0.11,0.07,0.22,0.07,0.34l0,4.43H46.49z M46.49,50.29"/>
	<path class="st2" d="M55.18,51.48c-0.15,0-0.28-0.03-0.38-0.09c-0.1-0.06-0.19-0.14-0.25-0.24c-0.06-0.1-0.1-0.21-0.13-0.34
		c-0.03-0.13-0.04-0.25-0.04-0.38v-4.26c0-0.17,0.01-0.32,0.03-0.47c0.02-0.14,0.07-0.27,0.14-0.38c0.08-0.1,0.18-0.18,0.31-0.25
		c0.14-0.06,0.32-0.09,0.55-0.09h2.87c0.09,0,0.17,0.02,0.24,0.05c0.08,0.03,0.14,0.07,0.2,0.12c0.06,0.05,0.1,0.11,0.13,0.18
		c0.04,0.07,0.05,0.15,0.05,0.23c0,0.08-0.02,0.16-0.05,0.23c-0.03,0.07-0.07,0.13-0.13,0.18c-0.05,0.05-0.12,0.09-0.2,0.12
		c-0.07,0.03-0.16,0.05-0.24,0.05h-2.3v1.45h2.1c0.09,0,0.17,0.02,0.25,0.04c0.07,0.03,0.14,0.07,0.2,0.12
		c0.05,0.06,0.1,0.12,0.13,0.19c0.03,0.07,0.05,0.15,0.05,0.23c0,0.08-0.02,0.15-0.05,0.22c-0.03,0.07-0.08,0.13-0.13,0.18
		c-0.06,0.05-0.13,0.09-0.2,0.12c-0.08,0.03-0.16,0.04-0.25,0.04h-2.1v1.56h2.41c0.08,0,0.16,0.02,0.23,0.05
		c0.07,0.03,0.13,0.07,0.19,0.12c0.05,0.05,0.09,0.11,0.12,0.18c0.03,0.07,0.04,0.14,0.04,0.23c0,0.08-0.01,0.16-0.04,0.22
		c-0.03,0.07-0.07,0.13-0.12,0.18c-0.05,0.05-0.12,0.09-0.19,0.12c-0.07,0.03-0.14,0.04-0.23,0.04H55.18z M55.18,51.48"/>
	<path class="st2" d="M74.04,46.55c-0.26,0.66-0.5,1.24-0.71,1.75c-0.09,0.22-0.18,0.43-0.26,0.64c-0.09,0.21-0.16,0.39-0.23,0.56
		c-0.07,0.16-0.12,0.3-0.16,0.4l-0.06,0.14c-0.06,0.15-0.13,0.3-0.2,0.43c-0.07,0.14-0.15,0.26-0.24,0.36
		c-0.09,0.11-0.19,0.19-0.3,0.25c-0.11,0.06-0.24,0.09-0.39,0.09c-0.13,0-0.25-0.02-0.35-0.07c-0.1-0.05-0.19-0.12-0.28-0.21
		c-0.09-0.09-0.17-0.21-0.24-0.35c-0.07-0.14-0.15-0.3-0.22-0.49L69,46.57v4.26c0,0.09-0.01,0.18-0.05,0.26
		c-0.03,0.08-0.08,0.15-0.14,0.21c-0.06,0.06-0.13,0.1-0.21,0.14c-0.08,0.04-0.16,0.05-0.25,0.05s-0.17-0.02-0.25-0.05
		c-0.08-0.03-0.15-0.08-0.21-0.14c-0.06-0.06-0.1-0.13-0.14-0.21c-0.03-0.08-0.05-0.17-0.05-0.26v-4.12c0-0.26,0.02-0.49,0.04-0.71
		c0.02-0.21,0.08-0.39,0.16-0.54c0.08-0.15,0.2-0.26,0.34-0.34c0.15-0.08,0.34-0.12,0.58-0.12c0.18,0,0.32,0.03,0.45,0.09
		c0.13,0.06,0.25,0.16,0.36,0.29c0.11,0.13,0.22,0.3,0.33,0.52c0.11,0.21,0.22,0.47,0.34,0.77l1.19,2.88h0.04l1.21-2.88
		c0.1-0.26,0.21-0.49,0.32-0.7c0.1-0.2,0.21-0.38,0.33-0.52c0.11-0.15,0.24-0.25,0.38-0.33s0.29-0.12,0.47-0.12
		c0.19,0,0.35,0.03,0.5,0.09c0.14,0.06,0.26,0.15,0.35,0.27c0.09,0.12,0.16,0.29,0.2,0.48c0.05,0.2,0.07,0.44,0.07,0.71v4.28
		c0,0.09-0.02,0.18-0.05,0.26c-0.03,0.08-0.08,0.15-0.14,0.21c-0.06,0.06-0.13,0.1-0.21,0.14c-0.08,0.04-0.17,0.05-0.25,0.05
		c-0.09,0-0.18-0.02-0.26-0.05c-0.08-0.03-0.15-0.08-0.21-0.14c-0.06-0.06-0.1-0.13-0.14-0.21c-0.04-0.08-0.05-0.17-0.05-0.26V46.55
		z M74.04,46.55"/>
	<path class="st2" d="M85.34,51.48c-0.15,0-0.28-0.03-0.38-0.09c-0.1-0.06-0.18-0.14-0.25-0.24c-0.06-0.1-0.11-0.21-0.14-0.34
		c-0.03-0.13-0.04-0.25-0.04-0.38v-4.26c0-0.17,0.01-0.32,0.03-0.47c0.02-0.14,0.07-0.27,0.14-0.38c0.07-0.1,0.17-0.18,0.31-0.25
		c0.14-0.06,0.32-0.09,0.56-0.09h2.87c0.09,0,0.17,0.02,0.24,0.05c0.08,0.03,0.14,0.07,0.2,0.12c0.06,0.05,0.1,0.11,0.13,0.18
		c0.04,0.07,0.05,0.15,0.05,0.23c0,0.08-0.02,0.16-0.05,0.23c-0.03,0.07-0.07,0.13-0.13,0.18c-0.05,0.05-0.12,0.09-0.2,0.12
		c-0.07,0.03-0.16,0.05-0.24,0.05h-2.3v1.45h2.1c0.09,0,0.16,0.02,0.24,0.04c0.07,0.03,0.14,0.07,0.2,0.12
		c0.05,0.06,0.1,0.12,0.13,0.19c0.03,0.07,0.05,0.15,0.05,0.23c0,0.08-0.02,0.15-0.05,0.22c-0.03,0.07-0.08,0.13-0.13,0.18
		c-0.06,0.05-0.12,0.09-0.2,0.12c-0.08,0.03-0.16,0.04-0.24,0.04h-2.1v1.56h2.41c0.08,0,0.15,0.02,0.22,0.05
		c0.07,0.03,0.13,0.07,0.19,0.12c0.05,0.05,0.09,0.11,0.12,0.18c0.03,0.07,0.04,0.14,0.04,0.23c0,0.08-0.01,0.16-0.04,0.22
		c-0.03,0.07-0.07,0.13-0.12,0.18c-0.05,0.05-0.12,0.09-0.19,0.12c-0.07,0.03-0.15,0.04-0.22,0.04H85.34z M85.34,51.48"/>
	<path class="st2" d="M96.42,46.17c-0.09,0-0.17-0.01-0.25-0.05c-0.08-0.03-0.14-0.07-0.2-0.12c-0.06-0.05-0.11-0.12-0.14-0.19
		c-0.04-0.07-0.05-0.15-0.05-0.23c0-0.08,0.02-0.16,0.05-0.23c0.03-0.07,0.08-0.14,0.14-0.19c0.06-0.05,0.12-0.1,0.2-0.13
		c0.08-0.03,0.16-0.05,0.25-0.05h4.07c0.09,0,0.17,0.02,0.25,0.05c0.08,0.03,0.14,0.07,0.2,0.13c0.06,0.05,0.1,0.12,0.14,0.19
		c0.03,0.07,0.05,0.15,0.05,0.23c0,0.08-0.02,0.16-0.05,0.23c-0.04,0.07-0.08,0.13-0.14,0.19c-0.06,0.05-0.13,0.09-0.2,0.12
		c-0.08,0.03-0.16,0.05-0.25,0.05H99.3v4.43c0,0.12-0.02,0.24-0.06,0.34c-0.05,0.1-0.11,0.19-0.18,0.28
		c-0.08,0.08-0.16,0.14-0.27,0.18c-0.1,0.04-0.21,0.07-0.32,0.07c-0.11,0-0.22-0.02-0.32-0.07c-0.1-0.04-0.19-0.11-0.26-0.18
		c-0.07-0.08-0.13-0.17-0.18-0.28c-0.04-0.11-0.07-0.22-0.07-0.34v-4.43H96.42z M96.42,46.17"/>
	<path class="st2" d="M110.43,50.61c0,0.12-0.02,0.24-0.06,0.34c-0.04,0.1-0.1,0.19-0.18,0.28c-0.07,0.08-0.16,0.14-0.26,0.18
		c-0.1,0.04-0.21,0.07-0.32,0.07c-0.12,0-0.22-0.02-0.32-0.07c-0.1-0.04-0.19-0.11-0.26-0.18c-0.07-0.08-0.13-0.17-0.18-0.28
		c-0.04-0.11-0.07-0.22-0.07-0.34v-4.79c0-0.14,0.03-0.26,0.09-0.36c0.05-0.11,0.13-0.19,0.22-0.26c0.09-0.07,0.2-0.12,0.33-0.15
		c0.12-0.04,0.25-0.05,0.39-0.05h1.79c0.33,0,0.65,0.02,0.95,0.07c0.3,0.04,0.57,0.13,0.8,0.24c0.23,0.12,0.41,0.29,0.55,0.5
		c0.14,0.21,0.21,0.49,0.21,0.83c0,0.18-0.03,0.36-0.08,0.52c-0.05,0.16-0.13,0.31-0.24,0.44c-0.11,0.13-0.26,0.25-0.45,0.34
		c-0.18,0.09-0.41,0.16-0.67,0.21v0.02c0.19,0.02,0.35,0.06,0.49,0.11c0.14,0.04,0.25,0.11,0.35,0.18c0.09,0.07,0.17,0.16,0.23,0.27
		c0.06,0.11,0.11,0.23,0.15,0.38c0.04,0.14,0.07,0.31,0.09,0.5c0.02,0.19,0.05,0.4,0.07,0.63c0,0.07,0.01,0.13,0.01,0.19
		c0,0.06,0,0.12,0,0.18c0,0.13-0.01,0.25-0.04,0.35c-0.02,0.11-0.06,0.2-0.12,0.28c-0.06,0.08-0.14,0.14-0.25,0.18
		c-0.1,0.05-0.24,0.07-0.4,0.07c-0.15,0-0.27-0.04-0.38-0.1c-0.1-0.07-0.18-0.16-0.25-0.28c-0.07-0.12-0.12-0.26-0.15-0.41
		c-0.03-0.16-0.06-0.32-0.08-0.5c-0.03-0.26-0.06-0.47-0.09-0.65c-0.03-0.17-0.08-0.31-0.15-0.42c-0.07-0.11-0.17-0.18-0.29-0.23
		c-0.13-0.05-0.3-0.07-0.52-0.07h-0.91V50.61z M111.12,47.77c0.16,0,0.32-0.01,0.48-0.03c0.16-0.02,0.3-0.06,0.43-0.12
		c0.13-0.06,0.23-0.15,0.32-0.27c0.08-0.12,0.12-0.28,0.12-0.47c0-0.23-0.04-0.39-0.12-0.51c-0.08-0.11-0.18-0.2-0.31-0.25
		c-0.13-0.06-0.27-0.09-0.44-0.11C111.44,46,111.26,46,111.08,46h-0.67v1.77H111.12z M111.12,47.77"/>
	<path class="st2" d="M124.97,50.61c0,0.12-0.03,0.24-0.07,0.34c-0.05,0.1-0.11,0.19-0.18,0.28c-0.07,0.08-0.16,0.14-0.26,0.18
		c-0.1,0.04-0.21,0.07-0.32,0.07c-0.12,0-0.22-0.02-0.32-0.07c-0.1-0.04-0.19-0.11-0.26-0.18c-0.07-0.08-0.13-0.17-0.17-0.28
		c-0.04-0.11-0.06-0.22-0.06-0.34V49l-1.64-2.74c-0.06-0.09-0.1-0.18-0.12-0.27c-0.02-0.09-0.04-0.18-0.04-0.26
		c0-0.11,0.02-0.21,0.06-0.3c0.04-0.09,0.09-0.17,0.16-0.23c0.07-0.07,0.14-0.12,0.23-0.15c0.09-0.04,0.18-0.05,0.27-0.05
		c0.14,0,0.29,0.05,0.43,0.14c0.14,0.09,0.27,0.23,0.36,0.44l1.17,2.34h0.02l1.22-2.36c0.1-0.2,0.22-0.34,0.36-0.42
		c0.14-0.09,0.27-0.13,0.41-0.13c0.08,0,0.16,0.01,0.24,0.04c0.07,0.03,0.14,0.07,0.2,0.12c0.05,0.05,0.1,0.12,0.13,0.2
		c0.04,0.08,0.05,0.16,0.05,0.25c0,0.08-0.01,0.16-0.04,0.25c-0.03,0.08-0.07,0.17-0.12,0.26l-1.71,2.84V50.61z M124.97,50.61"/>
	<path class="st2" d="M147.67,48.89c0.04-0.07,0.07-0.14,0.1-0.23c0.03-0.09,0.07-0.18,0.1-0.27c0.03-0.09,0.07-0.18,0.1-0.27
		c0.03-0.09,0.06-0.18,0.09-0.25c0.03-0.08,0.06-0.14,0.09-0.19c0.03-0.05,0.06-0.08,0.09-0.09c0.02-0.01,0.05-0.01,0.08-0.02
		c0.02,0,0.05,0,0.08,0c0.08,0,0.15,0.01,0.22,0.03c0.07,0.02,0.13,0.06,0.18,0.1c0.05,0.04,0.1,0.1,0.13,0.17
		c0.03,0.07,0.05,0.14,0.05,0.24c0,0.12-0.02,0.27-0.06,0.45c-0.04,0.17-0.09,0.35-0.15,0.53c-0.07,0.18-0.14,0.36-0.23,0.54
		c-0.08,0.18-0.18,0.34-0.28,0.48l0.2,0.2c0.05,0.06,0.1,0.11,0.15,0.17c0.05,0.06,0.09,0.13,0.13,0.19
		c0.03,0.07,0.07,0.13,0.09,0.19c0.02,0.06,0.04,0.12,0.04,0.18c0,0.07-0.02,0.15-0.05,0.22c-0.03,0.07-0.08,0.13-0.13,0.19
		c-0.05,0.05-0.11,0.09-0.19,0.13c-0.07,0.03-0.14,0.05-0.22,0.05c-0.1,0-0.21-0.04-0.33-0.12c-0.12-0.07-0.24-0.17-0.35-0.29
		l-0.33-0.34c-0.25,0.22-0.54,0.4-0.9,0.53c-0.36,0.13-0.75,0.19-1.18,0.19c-0.22,0-0.45-0.02-0.66-0.05
		c-0.22-0.04-0.43-0.09-0.63-0.15c-0.2-0.07-0.39-0.15-0.56-0.25c-0.17-0.1-0.32-0.23-0.44-0.37c-0.12-0.14-0.22-0.3-0.3-0.49
		c-0.07-0.18-0.11-0.38-0.11-0.61c0-0.21,0.04-0.41,0.12-0.6c0.08-0.18,0.19-0.35,0.34-0.5c0.14-0.16,0.32-0.3,0.52-0.43
		c0.21-0.13,0.43-0.25,0.68-0.37c-0.13-0.11-0.25-0.22-0.37-0.34c-0.12-0.12-0.22-0.25-0.31-0.38c-0.09-0.13-0.16-0.27-0.21-0.41
		c-0.05-0.14-0.08-0.29-0.08-0.43c0-0.24,0.06-0.46,0.17-0.64c0.11-0.18,0.26-0.34,0.45-0.46c0.19-0.12,0.41-0.21,0.66-0.28
		c0.25-0.06,0.51-0.09,0.78-0.09c0.25,0,0.49,0.03,0.74,0.08c0.25,0.05,0.47,0.14,0.66,0.26c0.2,0.12,0.36,0.27,0.48,0.45
		c0.12,0.18,0.19,0.4,0.19,0.64c0,0.16-0.03,0.31-0.09,0.46c-0.06,0.16-0.15,0.3-0.26,0.45c-0.11,0.14-0.25,0.28-0.39,0.41
		c-0.15,0.14-0.32,0.26-0.5,0.39c0.19,0.2,0.38,0.39,0.57,0.58c0.19,0.19,0.38,0.39,0.56,0.58c0.09-0.02,0.18-0.05,0.25-0.07
		C147.53,48.94,147.6,48.91,147.67,48.89L147.67,48.89z M144.97,48.51c-0.11,0.06-0.23,0.13-0.35,0.21
		c-0.12,0.09-0.23,0.18-0.33,0.28c-0.1,0.1-0.18,0.2-0.24,0.31c-0.06,0.11-0.09,0.21-0.09,0.31c0,0.16,0.03,0.31,0.1,0.44
		c0.07,0.13,0.16,0.23,0.27,0.32c0.12,0.09,0.25,0.15,0.4,0.2c0.15,0.04,0.31,0.07,0.48,0.07c0.25,0,0.48-0.05,0.7-0.14
		c0.21-0.09,0.42-0.22,0.62-0.38L144.97,48.51z M144.56,46.16c0,0.09,0.02,0.18,0.06,0.27c0.04,0.09,0.09,0.18,0.15,0.27
		c0.06,0.09,0.13,0.18,0.21,0.25c0.08,0.08,0.16,0.15,0.23,0.22c0.1-0.08,0.19-0.16,0.28-0.23c0.09-0.08,0.17-0.16,0.24-0.25
		c0.07-0.09,0.12-0.17,0.17-0.26c0.04-0.09,0.07-0.18,0.07-0.27c0-0.09-0.02-0.18-0.06-0.24c-0.04-0.07-0.09-0.13-0.16-0.17
		c-0.06-0.04-0.14-0.08-0.22-0.1c-0.08-0.02-0.17-0.04-0.26-0.04c-0.09,0-0.17,0.01-0.26,0.03c-0.09,0.02-0.16,0.05-0.23,0.09
		c-0.07,0.05-0.12,0.1-0.17,0.17C144.58,45.97,144.56,46.05,144.56,46.16L144.56,46.16z M144.56,46.16"/>
	<path class="st2" d="M168.87,47.58c0.08,0,0.16,0.02,0.23,0.05c0.07,0.03,0.13,0.07,0.19,0.12c0.05,0.06,0.09,0.11,0.12,0.18
		c0.03,0.07,0.04,0.14,0.04,0.23c0,0.08-0.02,0.16-0.04,0.23c-0.03,0.07-0.07,0.13-0.12,0.18c-0.05,0.05-0.12,0.09-0.19,0.12
		c-0.07,0.03-0.14,0.05-0.23,0.05h-2.02l0,1.86c0,0.12-0.02,0.24-0.07,0.34c-0.04,0.1-0.1,0.19-0.18,0.28
		c-0.07,0.08-0.16,0.14-0.26,0.18c-0.1,0.04-0.21,0.07-0.32,0.07c-0.12,0-0.22-0.02-0.32-0.07c-0.1-0.04-0.19-0.11-0.26-0.18
		c-0.07-0.08-0.13-0.17-0.18-0.28c-0.04-0.11-0.06-0.22-0.06-0.34v-4.79c0-0.15,0.03-0.27,0.08-0.37c0.06-0.11,0.13-0.19,0.23-0.26
		c0.09-0.07,0.21-0.12,0.33-0.15c0.13-0.03,0.26-0.05,0.4-0.05h2.77c0.08,0,0.16,0.02,0.23,0.05c0.07,0.03,0.13,0.07,0.18,0.12
		c0.05,0.05,0.09,0.11,0.13,0.18c0.03,0.07,0.05,0.15,0.05,0.23c0,0.08-0.02,0.16-0.05,0.23c-0.03,0.07-0.07,0.13-0.13,0.18
		c-0.05,0.05-0.11,0.09-0.18,0.12c-0.07,0.03-0.15,0.05-0.23,0.05h-2.16v1.42H168.87z M168.87,47.58"/>
	<path class="st2" d="M181.19,45.86c0-0.12,0.02-0.24,0.06-0.34c0.04-0.11,0.1-0.2,0.18-0.28c0.07-0.08,0.16-0.14,0.26-0.18
		c0.1-0.05,0.21-0.07,0.32-0.07c0.12,0,0.23,0.02,0.32,0.07c0.1,0.04,0.19,0.1,0.27,0.18c0.07,0.08,0.13,0.17,0.18,0.28
		c0.04,0.11,0.07,0.22,0.07,0.34v3.42c0,0.39-0.07,0.73-0.21,1.03c-0.14,0.29-0.33,0.54-0.58,0.73c-0.25,0.2-0.54,0.34-0.89,0.44
		c-0.34,0.1-0.72,0.15-1.12,0.15c-0.4,0-0.77-0.05-1.11-0.14c-0.34-0.1-0.64-0.24-0.88-0.43c-0.25-0.19-0.45-0.44-0.58-0.73
		c-0.14-0.29-0.21-0.64-0.21-1.04v-3.42c0-0.12,0.02-0.24,0.06-0.34c0.04-0.11,0.1-0.2,0.18-0.28c0.07-0.08,0.16-0.14,0.26-0.18
		c0.1-0.05,0.21-0.07,0.32-0.07c0.12,0,0.23,0.02,0.33,0.07c0.1,0.04,0.19,0.1,0.26,0.18c0.07,0.08,0.13,0.17,0.18,0.28
		c0.04,0.11,0.07,0.22,0.07,0.34l0,3.39c0,0.22,0.03,0.4,0.1,0.56c0.07,0.15,0.15,0.28,0.26,0.38c0.11,0.1,0.23,0.17,0.36,0.22
		c0.14,0.05,0.27,0.07,0.41,0.07c0.14,0,0.28-0.02,0.42-0.07c0.14-0.05,0.26-0.12,0.36-0.22c0.11-0.1,0.2-0.23,0.26-0.38
		c0.07-0.16,0.1-0.34,0.1-0.56V45.86z M181.19,45.86"/>
	<path class="st2" d="M192.01,51.48c-0.15,0-0.28-0.03-0.38-0.09c-0.1-0.06-0.18-0.14-0.25-0.24c-0.06-0.1-0.11-0.21-0.14-0.34
		c-0.02-0.13-0.04-0.25-0.04-0.38v-4.26c0-0.17,0.01-0.32,0.03-0.47c0.02-0.14,0.07-0.27,0.14-0.38c0.07-0.1,0.18-0.18,0.31-0.25
		c0.14-0.06,0.32-0.09,0.55-0.09h2.87c0.09,0,0.17,0.02,0.25,0.05c0.07,0.03,0.14,0.07,0.2,0.12c0.06,0.05,0.1,0.11,0.14,0.18
		c0.03,0.07,0.05,0.15,0.05,0.23c0,0.08-0.02,0.16-0.05,0.23c-0.04,0.07-0.08,0.13-0.14,0.18c-0.06,0.05-0.12,0.09-0.2,0.12
		c-0.08,0.03-0.16,0.05-0.25,0.05h-2.3v1.45h2.1c0.08,0,0.17,0.02,0.24,0.04c0.08,0.03,0.14,0.07,0.2,0.12
		c0.06,0.06,0.1,0.12,0.13,0.19c0.03,0.07,0.05,0.15,0.05,0.23c0,0.08-0.02,0.15-0.05,0.22c-0.03,0.07-0.08,0.13-0.13,0.18
		c-0.06,0.05-0.12,0.09-0.2,0.12c-0.08,0.03-0.16,0.04-0.24,0.04h-2.1v1.56h2.41c0.08,0,0.16,0.02,0.23,0.05
		c0.07,0.03,0.13,0.07,0.18,0.12c0.05,0.05,0.09,0.11,0.12,0.18c0.03,0.07,0.04,0.14,0.04,0.23c0,0.08-0.01,0.16-0.04,0.22
		c-0.03,0.07-0.07,0.13-0.12,0.18c-0.06,0.05-0.12,0.09-0.18,0.12c-0.07,0.03-0.15,0.04-0.23,0.04H192.01z M192.01,51.48"/>
	<path class="st2" d="M207.31,50.29c0.08,0,0.16,0.02,0.23,0.05c0.07,0.03,0.14,0.08,0.19,0.13c0.06,0.05,0.1,0.12,0.13,0.19
		c0.03,0.07,0.05,0.15,0.05,0.23c0,0.08-0.02,0.16-0.05,0.23c-0.03,0.07-0.07,0.14-0.13,0.19c-0.05,0.05-0.12,0.09-0.19,0.12
		c-0.07,0.03-0.15,0.05-0.23,0.05h-3.06c-0.16,0-0.3-0.04-0.4-0.11c-0.11-0.07-0.19-0.16-0.26-0.28c-0.06-0.11-0.11-0.24-0.13-0.39
		c-0.03-0.15-0.04-0.29-0.04-0.45v-4.4c0-0.12,0.02-0.24,0.07-0.34c0.04-0.11,0.1-0.2,0.18-0.28c0.07-0.08,0.16-0.14,0.26-0.18
		c0.1-0.05,0.21-0.07,0.32-0.07c0.12,0,0.23,0.02,0.32,0.07c0.1,0.04,0.19,0.1,0.26,0.18c0.08,0.08,0.13,0.17,0.18,0.28
		c0.04,0.11,0.07,0.22,0.07,0.34l0,4.43H207.31z M207.31,50.29"/>
	<path class="st2" d="M222.72,48.29c0-0.54,0.08-1.03,0.24-1.45c0.16-0.43,0.38-0.79,0.66-1.08c0.29-0.3,0.63-0.52,1.02-0.67
		c0.39-0.16,0.82-0.24,1.3-0.24c0.37,0,0.69,0.02,0.97,0.07c0.28,0.05,0.5,0.11,0.69,0.19c0.18,0.08,0.32,0.18,0.41,0.29
		c0.09,0.11,0.13,0.23,0.13,0.36c0,0.09-0.02,0.16-0.05,0.22c-0.04,0.07-0.08,0.12-0.14,0.16c-0.06,0.04-0.12,0.07-0.19,0.09
		c-0.07,0.02-0.14,0.03-0.22,0.03c-0.04,0-0.09,0-0.12,0c-0.04,0-0.08-0.01-0.12-0.02c-0.11-0.03-0.22-0.06-0.32-0.09
		c-0.1-0.03-0.2-0.05-0.31-0.07c-0.1-0.02-0.2-0.04-0.3-0.05c-0.1-0.02-0.2-0.02-0.31-0.02c-0.22,0-0.43,0.03-0.63,0.1
		c-0.2,0.07-0.37,0.19-0.52,0.36c-0.15,0.17-0.26,0.4-0.34,0.69c-0.09,0.29-0.13,0.66-0.13,1.11c0,0.34,0.04,0.66,0.1,0.93
		c0.07,0.28,0.17,0.51,0.31,0.7c0.14,0.19,0.31,0.34,0.51,0.44c0.2,0.1,0.44,0.15,0.72,0.15c0.11,0,0.22-0.01,0.34-0.03
		c0.12-0.02,0.24-0.06,0.36-0.09c0.13-0.04,0.25-0.08,0.38-0.13c0.13-0.05,0.26-0.09,0.39-0.14c0.04-0.01,0.09-0.02,0.14-0.02
		c0.08,0,0.14,0.01,0.2,0.04c0.06,0.03,0.12,0.07,0.16,0.11c0.04,0.05,0.08,0.1,0.1,0.17c0.02,0.06,0.03,0.13,0.03,0.2
		c0,0.11-0.03,0.22-0.11,0.32c-0.08,0.1-0.18,0.19-0.3,0.26c-0.12,0.08-0.27,0.14-0.43,0.2c-0.16,0.06-0.33,0.11-0.5,0.14
		c-0.17,0.04-0.34,0.07-0.52,0.09c-0.17,0.02-0.33,0.03-0.47,0.03c-0.44,0-0.85-0.07-1.23-0.22c-0.38-0.15-0.71-0.36-0.99-0.65
		c-0.28-0.29-0.5-0.63-0.66-1.05C222.81,49.3,222.72,48.83,222.72,48.29L222.72,48.29z M222.72,48.29"/>
	<path class="st2" d="M238.43,48.24c0,0.74,0.12,1.3,0.35,1.67c0.23,0.38,0.6,0.56,1.1,0.56c0.49,0,0.86-0.19,1.1-0.56
		c0.24-0.38,0.36-0.93,0.36-1.67c0-0.36-0.03-0.67-0.09-0.95c-0.06-0.28-0.15-0.51-0.26-0.7c-0.12-0.19-0.27-0.33-0.45-0.43
		c-0.18-0.1-0.4-0.15-0.66-0.15c-0.25,0-0.47,0.05-0.65,0.15c-0.18,0.1-0.33,0.25-0.45,0.43c-0.12,0.19-0.21,0.43-0.27,0.7
		C238.46,47.57,238.43,47.89,238.43,48.24L238.43,48.24z M236.69,48.24c0-0.49,0.07-0.94,0.2-1.36c0.13-0.42,0.33-0.78,0.6-1.08
		c0.26-0.3,0.59-0.54,0.99-0.7c0.4-0.17,0.87-0.25,1.4-0.25c0.52,0,0.98,0.08,1.38,0.25c0.4,0.16,0.73,0.39,1,0.69
		c0.27,0.3,0.47,0.66,0.61,1.07c0.14,0.42,0.21,0.88,0.21,1.38c0,0.5-0.07,0.96-0.2,1.37c-0.13,0.42-0.33,0.78-0.6,1.07
		c-0.27,0.3-0.6,0.53-1,0.7c-0.4,0.17-0.86,0.25-1.39,0.25c-0.51,0-0.97-0.08-1.37-0.24c-0.4-0.16-0.73-0.39-1-0.68
		c-0.27-0.3-0.47-0.65-0.61-1.07C236.76,49.23,236.69,48.76,236.69,48.24L236.69,48.24z M236.69,48.24"/>
	<path class="st2" d="M253.02,50.78c0,0.1-0.02,0.19-0.05,0.27c-0.04,0.09-0.09,0.16-0.15,0.22c-0.06,0.06-0.14,0.11-0.22,0.15
		c-0.09,0.04-0.18,0.06-0.28,0.06c-0.1,0-0.19-0.02-0.27-0.06c-0.08-0.04-0.16-0.09-0.22-0.15c-0.06-0.06-0.11-0.14-0.15-0.22
		c-0.03-0.09-0.05-0.18-0.05-0.27v-4.88c0-0.15,0.02-0.28,0.07-0.39c0.04-0.11,0.1-0.21,0.17-0.29c0.07-0.08,0.16-0.14,0.26-0.18
		c0.1-0.04,0.2-0.06,0.32-0.06c0.1,0,0.19,0.02,0.28,0.06c0.09,0.04,0.18,0.09,0.26,0.15c0.09,0.06,0.16,0.14,0.24,0.22
		c0.08,0.08,0.15,0.17,0.22,0.27l2.64,3.57v-3.57c0-0.1,0.02-0.19,0.05-0.27c0.04-0.09,0.09-0.16,0.15-0.22
		c0.06-0.06,0.14-0.11,0.22-0.15c0.08-0.04,0.17-0.06,0.27-0.06c0.1,0,0.19,0.02,0.27,0.06c0.09,0.04,0.16,0.09,0.22,0.15
		c0.06,0.06,0.11,0.14,0.15,0.22c0.04,0.08,0.06,0.18,0.06,0.27v4.54c0,0.16-0.01,0.32-0.03,0.47c-0.02,0.15-0.05,0.28-0.11,0.4
		c-0.05,0.11-0.14,0.2-0.24,0.27c-0.1,0.07-0.24,0.1-0.41,0.1c-0.09,0-0.18-0.02-0.27-0.06c-0.09-0.03-0.17-0.08-0.25-0.14
		c-0.08-0.06-0.16-0.14-0.24-0.22c-0.08-0.09-0.16-0.18-0.23-0.27l-2.66-3.62V50.78z M253.02,50.78"/>
	<path class="st2" d="M265.81,46.17c-0.09,0-0.17-0.01-0.25-0.05c-0.07-0.03-0.14-0.07-0.2-0.12c-0.06-0.05-0.1-0.12-0.14-0.19
		c-0.04-0.07-0.05-0.15-0.05-0.23c0-0.08,0.02-0.16,0.05-0.23c0.04-0.07,0.08-0.14,0.14-0.19c0.06-0.05,0.13-0.1,0.2-0.13
		c0.08-0.03,0.16-0.05,0.25-0.05h4.08c0.09,0,0.17,0.02,0.25,0.05c0.07,0.03,0.14,0.07,0.2,0.13c0.06,0.05,0.1,0.12,0.14,0.19
		c0.04,0.07,0.05,0.15,0.05,0.23c0,0.08-0.02,0.16-0.05,0.23c-0.04,0.07-0.08,0.13-0.14,0.19c-0.06,0.05-0.13,0.09-0.2,0.12
		c-0.08,0.03-0.16,0.05-0.25,0.05h-1.2v4.43c0,0.12-0.02,0.24-0.06,0.34c-0.04,0.1-0.1,0.19-0.18,0.28
		c-0.07,0.08-0.16,0.14-0.26,0.18c-0.1,0.04-0.21,0.07-0.32,0.07c-0.12,0-0.22-0.02-0.32-0.07c-0.1-0.04-0.19-0.11-0.26-0.18
		c-0.07-0.08-0.13-0.17-0.18-0.28c-0.04-0.11-0.07-0.22-0.07-0.34v-4.43H265.81z M265.81,46.17"/>
	<path class="st2" d="M279.82,50.61c0,0.12-0.02,0.24-0.07,0.34c-0.04,0.1-0.1,0.19-0.17,0.28c-0.08,0.08-0.16,0.14-0.27,0.18
		c-0.1,0.04-0.21,0.07-0.32,0.07c-0.11,0-0.22-0.02-0.32-0.07c-0.1-0.04-0.18-0.11-0.26-0.18c-0.08-0.08-0.14-0.17-0.18-0.28
		c-0.04-0.11-0.06-0.22-0.06-0.34v-4.79c0-0.14,0.03-0.26,0.08-0.36c0.05-0.11,0.13-0.19,0.22-0.26c0.09-0.07,0.2-0.12,0.32-0.15
		c0.13-0.04,0.25-0.05,0.39-0.05h1.79c0.33,0,0.65,0.02,0.95,0.07c0.3,0.04,0.57,0.13,0.8,0.24c0.23,0.12,0.42,0.29,0.55,0.5
		c0.14,0.21,0.21,0.49,0.21,0.83c0,0.18-0.02,0.36-0.07,0.52c-0.05,0.16-0.13,0.31-0.25,0.44c-0.11,0.13-0.26,0.25-0.45,0.34
		c-0.18,0.09-0.41,0.16-0.67,0.21v0.02c0.19,0.02,0.36,0.06,0.49,0.11c0.14,0.04,0.25,0.11,0.35,0.18c0.09,0.07,0.17,0.16,0.23,0.27
		c0.06,0.11,0.11,0.23,0.15,0.38c0.04,0.14,0.07,0.31,0.09,0.5c0.02,0.19,0.05,0.4,0.07,0.63c0.01,0.07,0.01,0.13,0.02,0.19
		c0,0.06,0,0.12,0,0.18c0,0.13-0.01,0.25-0.04,0.35c-0.02,0.11-0.07,0.2-0.13,0.28c-0.06,0.08-0.14,0.14-0.25,0.18
		c-0.11,0.05-0.24,0.07-0.4,0.07c-0.15,0-0.27-0.04-0.37-0.1c-0.1-0.07-0.18-0.16-0.25-0.28c-0.07-0.12-0.11-0.26-0.15-0.41
		c-0.03-0.16-0.06-0.32-0.08-0.5c-0.03-0.26-0.06-0.47-0.09-0.65c-0.03-0.17-0.08-0.31-0.15-0.42c-0.07-0.11-0.17-0.18-0.29-0.23
		c-0.13-0.05-0.3-0.07-0.52-0.07h-0.91V50.61z M280.51,47.77c0.16,0,0.32-0.01,0.48-0.03c0.16-0.02,0.31-0.06,0.44-0.12
		c0.13-0.06,0.24-0.15,0.31-0.27c0.08-0.12,0.12-0.28,0.12-0.47c0-0.23-0.04-0.39-0.11-0.51c-0.08-0.11-0.18-0.2-0.31-0.25
		c-0.13-0.06-0.28-0.09-0.45-0.11C280.82,46,280.65,46,280.47,46h-0.68v1.77H280.51z M280.51,47.77"/>
	<path class="st2" d="M293.2,48.24c0,0.74,0.12,1.3,0.35,1.67c0.23,0.38,0.6,0.56,1.1,0.56c0.49,0,0.85-0.19,1.1-0.56
		c0.24-0.38,0.36-0.93,0.36-1.67c0-0.36-0.03-0.67-0.09-0.95c-0.06-0.28-0.15-0.51-0.27-0.7c-0.12-0.19-0.27-0.33-0.46-0.43
		c-0.18-0.1-0.4-0.15-0.65-0.15c-0.25,0-0.46,0.05-0.65,0.15c-0.18,0.1-0.34,0.25-0.45,0.43c-0.12,0.19-0.21,0.43-0.26,0.7
		C293.23,47.57,293.2,47.89,293.2,48.24L293.2,48.24z M291.46,48.24c0-0.49,0.07-0.94,0.2-1.36c0.13-0.42,0.33-0.78,0.59-1.08
		c0.27-0.3,0.6-0.54,1-0.7c0.4-0.17,0.87-0.25,1.4-0.25c0.52,0,0.98,0.08,1.38,0.25c0.4,0.16,0.73,0.39,1,0.69
		c0.27,0.3,0.47,0.66,0.61,1.07s0.2,0.88,0.2,1.38c0,0.5-0.07,0.96-0.2,1.37c-0.13,0.42-0.34,0.78-0.6,1.07
		c-0.27,0.3-0.6,0.53-1,0.7c-0.4,0.17-0.86,0.25-1.39,0.25c-0.52,0-0.97-0.08-1.37-0.24c-0.4-0.16-0.73-0.39-1-0.68
		c-0.27-0.3-0.48-0.65-0.61-1.07C291.53,49.23,291.46,48.76,291.46,48.24L291.46,48.24z M291.46,48.24"/>
	<path class="st2" d="M309.92,50.29c0.08,0,0.16,0.02,0.23,0.05c0.07,0.03,0.14,0.08,0.19,0.13c0.05,0.05,0.09,0.12,0.12,0.19
		c0.03,0.07,0.05,0.15,0.05,0.23c0,0.08-0.01,0.16-0.05,0.23c-0.03,0.07-0.07,0.14-0.12,0.19c-0.05,0.05-0.12,0.09-0.19,0.12
		c-0.07,0.03-0.15,0.05-0.23,0.05h-3.06c-0.16,0-0.29-0.04-0.4-0.11c-0.11-0.07-0.19-0.16-0.25-0.28c-0.07-0.11-0.11-0.24-0.14-0.39
		c-0.02-0.15-0.03-0.29-0.03-0.45v-4.4c0-0.12,0.02-0.24,0.06-0.34c0.04-0.11,0.1-0.2,0.18-0.28c0.08-0.08,0.16-0.14,0.26-0.18
		c0.1-0.05,0.21-0.07,0.32-0.07c0.12,0,0.23,0.02,0.32,0.07c0.1,0.04,0.19,0.1,0.27,0.18c0.07,0.08,0.13,0.17,0.18,0.28
		c0.04,0.11,0.07,0.22,0.07,0.34l0,4.43H309.92z M309.92,50.29"/>
	<path class="st2" d="M20.81,15.1v17.46c0,0.89-0.54,1.33-1.61,1.33c-1.05,0-1.57-0.44-1.57-1.33V15.1H8.95
		c-0.79,0-1.18-0.43-1.18-1.3c0-0.81,0.39-1.21,1.18-1.21H29.5c0.75,0,1.12,0.4,1.12,1.21c0,0.87-0.37,1.3-1.12,1.3H20.81z
		 M20.81,15.1"/>
	<path class="st2" d="M41.09,20c-2.8,0-4.21,0.83-4.21,2.48V32.6c0,0.87-0.49,1.3-1.48,1.3c-0.99,0-1.48-0.43-1.48-1.3V22.49
		c0-3.27,2.49-4.91,7.48-4.91h1.33c0.75,0,1.12,0.41,1.12,1.21c0,0.81-0.31,1.21-0.94,1.21H41.09z M41.09,20"/>
	<path class="st2" d="M67.06,24.85H53.53c-2.3,0-3.45,0.73-3.45,2.18v2.21c0,1.38,1.23,2.06,3.69,2.06h9.72
		c2.38,0,3.57-1.04,3.57-3.12V24.85z M69.85,29.02c0,3.15-2.29,4.72-6.87,4.72h-8.63c-4.84,0-7.27-1.51-7.27-4.54v-2.09
		c0-3.15,2.37-4.72,7.11-4.72h12.84c-0.2-1.59-1.4-2.39-3.6-2.39h-3.57c-0.7,0-1.06-0.41-1.06-1.24c0-0.78,0.36-1.18,1.06-1.18h3.12
		c4.58,0,6.87,1.62,6.87,4.84V29.02z M69.85,29.02"/>
	<path class="st2" d="M97.27,32.6c0,0.87-0.5,1.3-1.48,1.3c-1.01,0-1.51-0.43-1.51-1.3V21.97c0-1.31-1.32-1.97-3.97-1.97h-7.39
		c-2.7,0-4.05,0.66-4.05,1.97V32.6c0,0.87-0.49,1.3-1.45,1.3c-0.99,0-1.48-0.43-1.48-1.3V21.97c0-2.93,2.6-4.39,7.81-4.39h5.69
		c5.23,0,7.84,1.46,7.84,4.39V32.6z M97.27,32.6"/>
	<path class="st2" d="M122.15,29.45c0,2.86-2.07,4.3-6.2,4.3h-12.41c-0.87,0-1.31-0.39-1.31-1.18c0-0.85,0.44-1.27,1.31-1.27h12.92
		c1.78,0,2.66-0.61,2.66-1.84v-0.97c0-1.19-1-1.79-3-1.79h-6.84c-4.56,0-6.84-1.36-6.84-4.09v-1.09c0-2.62,2.17-3.94,6.51-3.94h3.45
		c0.85,0,1.27,0.41,1.27,1.21c0,0.81-0.42,1.21-1.27,1.21h-4.15c-1.93,0-2.9,0.5-2.9,1.52v1.03c0,1.17,1.14,1.75,3.42,1.75h6.99
		c4.26,0,6.39,1.39,6.39,4.18V29.45z M122.15,29.45"/>
	<path class="st2" d="M130.53,20V32.6c0,0.87-0.47,1.3-1.42,1.3c-0.99,0-1.48-0.43-1.48-1.3V20h-1.45c-0.81,0-1.21-0.41-1.21-1.24
		c0-0.78,0.4-1.18,1.21-1.18h1.45v-3.84c0-0.87,0.5-1.3,1.51-1.3c0.93,0,1.39,0.43,1.39,1.3v3.84h5.9c0.81,0,1.21,0.41,1.21,1.21
		c0,0.81-0.4,1.21-1.21,1.21H130.53z M130.53,20"/>
	<path class="st2" d="M142.67,24.57h15.8v-2.39c0-1.45-1.13-2.18-3.39-2.18h-7.9c-3.01,0-4.51,0.77-4.51,2.3V24.57z M161.32,25.75
		c0,0.91-0.43,1.36-1.3,1.36h-17.34v2c0,1.45,1.5,2.18,4.51,2.18h3.24c0.83,0,1.24,0.41,1.24,1.21c0,0.83-0.41,1.24-1.24,1.24h-2.48
		c-5.47,0-8.2-1.66-8.2-4.99v-6.21c0-3.31,2.7-4.96,8.11-4.96h6.66c4.54,0,6.81,1.43,6.81,4.3V25.75z M161.32,25.75"/>
	<path class="st2" d="M170.03,32.6c0,0.87-0.48,1.3-1.45,1.3c-0.99,0-1.48-0.43-1.48-1.3V13.74c0-0.87,0.48-1.3,1.45-1.3
		c0.99,0,1.48,0.43,1.48,1.3V32.6z M170.03,32.6"/>
	<path class="st2" d="M178.9,24.57h15.8v-2.39c0-1.45-1.13-2.18-3.39-2.18h-7.9c-3,0-4.51,0.77-4.51,2.3V24.57z M197.55,25.75
		c0,0.91-0.43,1.36-1.3,1.36H178.9v2c0,1.45,1.5,2.18,4.51,2.18h3.24c0.83,0,1.24,0.41,1.24,1.21c0,0.83-0.41,1.24-1.24,1.24h-2.48
		c-5.47,0-8.2-1.66-8.2-4.99v-6.21c0-3.31,2.7-4.96,8.11-4.96h6.66c4.54,0,6.81,1.43,6.81,4.3V25.75z M197.55,25.75"/>
	<path class="st2" d="M233.08,32.6c0,0.87-0.5,1.3-1.48,1.3c-0.97,0-1.45-0.43-1.45-1.3V22.3c0-1.54-1.59-2.3-4.78-2.3
		c-3.77,0-5.66,0.92-5.66,2.75v9.84c0,0.87-0.47,1.3-1.42,1.3c-1.03,0-1.54-0.43-1.54-1.3v-9.84c0-1.84-1.88-2.75-5.63-2.75
		c-3.23,0-4.84,0.78-4.84,2.33V32.6c0,0.87-0.5,1.3-1.48,1.3c-0.97,0-1.45-0.43-1.45-1.3v-9.9c0-3.41,2.59-5.12,7.78-5.12
		c3.82,0,6.23,0.89,7.23,2.66c1.03-1.77,3.37-2.66,7.02-2.66c5.14,0,7.72,1.71,7.72,5.12V32.6z M233.08,32.6"/>
	<path class="st2" d="M241.98,24.57h15.8v-2.39c0-1.45-1.13-2.18-3.39-2.18h-7.9c-3,0-4.51,0.77-4.51,2.3V24.57z M260.63,25.75
		c0,0.91-0.43,1.36-1.3,1.36h-17.34v2c0,1.45,1.5,2.18,4.51,2.18h3.24c0.82,0,1.24,0.41,1.24,1.21c0,0.83-0.41,1.24-1.24,1.24h-2.49
		c-5.47,0-8.2-1.66-8.2-4.99v-6.21c0-3.31,2.7-4.96,8.11-4.96h6.66c4.54,0,6.81,1.43,6.81,4.3V25.75z M260.63,25.75"/>
	<path class="st2" d="M270.28,20V32.6c0,0.87-0.48,1.3-1.42,1.3c-0.99,0-1.49-0.43-1.49-1.3V20h-1.45c-0.81,0-1.21-0.41-1.21-1.24
		c0-0.78,0.4-1.18,1.21-1.18h1.45v-3.84c0-0.87,0.5-1.3,1.51-1.3c0.93,0,1.39,0.43,1.39,1.3v3.84h5.9c0.8,0,1.21,0.41,1.21,1.21
		c0,0.81-0.41,1.21-1.21,1.21H270.28z M270.28,20"/>
	<path class="st2" d="M287.72,20c-2.8,0-4.21,0.83-4.21,2.48V32.6c0,0.87-0.5,1.3-1.48,1.3s-1.48-0.43-1.48-1.3V22.49
		c0-3.27,2.49-4.91,7.48-4.91h1.33c0.75,0,1.12,0.41,1.12,1.21c0,0.81-0.31,1.21-0.94,1.21H287.72z M287.72,20"/>
	<path class="st2" d="M297.83,15.25c0,1.03-0.69,1.54-2.06,1.54c-1.29,0-1.94-0.51-1.94-1.54c0-1.03,0.65-1.55,1.94-1.55
		C297.14,13.71,297.83,14.22,297.83,15.25L297.83,15.25z M297.31,32.6c0,0.87-0.47,1.3-1.42,1.3s-1.42-0.43-1.42-1.3V19.76
		c0-0.83,0.45-1.24,1.36-1.24c0.99,0,1.48,0.41,1.48,1.24V32.6z M297.31,32.6"/>
	<path class="st2" d="M312.29,23.97l8.11-6.17c0.28-0.27,0.59-0.39,0.94-0.39c0.4,0,0.74,0.16,1.01,0.47
		c0.27,0.31,0.41,0.65,0.41,1.01c0,0.36-0.19,0.7-0.57,1l-7.63,5.78l7.63,5.87c0.3,0.24,0.45,0.54,0.45,0.88
		c0,0.2-0.03,0.39-0.11,0.57c-0.07,0.18-0.17,0.34-0.29,0.48c-0.12,0.14-0.26,0.26-0.41,0.36c-0.15,0.1-0.32,0.15-0.5,0.15
		c-0.24,0-0.5-0.12-0.76-0.36l-8.29-6.23l-8.23,6.23c-0.22,0.2-0.47,0.3-0.75,0.3c-0.36,0-0.67-0.16-0.93-0.48
		c-0.25-0.32-0.38-0.67-0.38-1.03c0-0.16,0.04-0.32,0.12-0.47c0.08-0.15,0.2-0.29,0.34-0.41l7.6-5.87l-7.6-5.78
		c-0.41-0.32-0.61-0.66-0.61-1c0-0.4,0.14-0.74,0.42-1.01c0.28-0.27,0.62-0.41,1-0.41c0.14,0,0.3,0.02,0.48,0.06
		c0.18,0.04,0.34,0.13,0.49,0.27L312.29,23.97z M312.29,23.97"/>
</g>
</svg>
