<svg width="409" height="499" xmlns="http://www.w3.org/2000/svg" xmlns:xlink="http://www.w3.org/1999/xlink" xml:space="preserve" overflow="hidden"><defs><clipPath id="clip0"><rect x="50" y="98" width="409" height="499"/></clipPath></defs><g clip-path="url(#clip0)" transform="translate(-50 -98)"><path d="M230.884 553.403 220.423 552.662 208.165 551.127 195.906 549.592 195.089 549.087 194.272 548.582 194.286 501.328 194.301 454.074 195 453.077 195.698 452.081 200.453 449.381 205.208 446.681 218.773 438.643 232.338 430.604 245.4 438.011 258.462 445.418 264.414 448.625 270.365 451.832 270.119 502.879 269.873 553.925 255.609 554.035 241.345 554.144ZM314.093 546.817 309.814 544.135 296.5 536.113 283.187 528.091 282.941 476.615 282.695 425.138 289.598 420.489 296.5 415.839 307.812 409.035 319.124 402.231 327.783 406.901 336.441 411.57 347.377 417.689 358.313 423.808 358.313 458.911 358.313 494.014 357.838 516.782 357.362 539.55 351.656 541.286 345.951 543.022 332.742 546.334 319.534 549.646 318.953 549.573 318.373 549.5ZM136.263 534.156 124.376 529.138 115.342 524.384 106.308 519.629 106.308 488.891 106.308 458.152 124.376 451.169 142.444 444.186 145.522 442.568 148.6 440.95 154.081 444.548 159.562 448.146 171.211 456.279 182.86 464.412 182.86 489.499 182.86 514.585 181.839 516.494 180.817 518.403 165.434 528.556 150.052 538.71 149.101 538.942 148.15 539.174ZM386.301 521.105 380.185 517.289 375.193 514.357 370.2 511.426 370.2 465.004 370.2 418.582 367.324 416.161 364.448 413.741 359.772 411.113 355.097 408.485 354.579 406.554 354.06 404.624 354.047 384.568 354.034 364.513 356.173 363.475 358.313 362.437 370.676 351.889 383.038 341.341 385.416 341.832 387.793 342.323 409.887 348.748 431.981 355.174 432.588 417.674 433.194 480.175 432.523 490.026 431.852 499.876 421.234 507.875 410.616 515.874 403.094 520.397 395.573 524.921 393.995 524.921 392.417 524.921ZM74.1833 496.261 72.6496 495.403 66.8023 487.576 60.955 479.75 57.7053 473.33 54.4556 466.911 53.0414 461.481 51.6272 456.052 51.6272 409.179 51.6272 362.306 79.6084 362.306 107.59 362.306 110.212 367.484 112.834 372.663 119.318 381.706 125.802 390.749 125.802 413.547 125.802 436.345 124.441 437.707 123.079 439.069 110.414 444.061 97.749 449.054 96.1474 450.466 94.5458 451.878 95.0036 463.436 95.4614 474.995 94.7033 482.97 93.9451 490.945 87.2884 493.215 80.6316 495.484 78.1742 496.302 75.7169 497.119ZM444.238 466.199 444.1 454.074 443.524 399.883 442.949 345.693 433.915 343.019 424.881 340.345 407.763 335.752 390.646 331.159 390.388 312.446 390.13 293.734 391.571 289.743 393.012 285.753 396.695 275.293 400.379 264.832 413.105 264.234 425.832 263.636 441.047 263.283 456.262 262.93 456.262 361.355 456.262 459.78 453.193 466.259 450.124 472.739 448.136 475.531 446.148 478.323 445.262 478.323 444.375 478.323ZM649 430.632 642.985 428.561 638.37 424.411 633.754 420.262 632.048 415.794 630.342 411.326 630.342 404.57 630.342 397.813 632.748 393.135 635.154 388.457 639.854 384.895 644.553 381.332 649.157 379.797 653.761 378.262 659.618 378.645 665.475 379.027 669.879 381.24 674.284 383.452 677.012 385.66 679.739 387.868 676.31 391.339 672.88 394.809 667.674 391.871 662.468 388.933 658.931 388.933 655.395 388.933 652.352 390.474 649.308 392.015 647.547 393.562 645.785 395.11 644.32 397.942 642.855 400.775 642.855 405.575 642.855 410.374 644.417 413.393 645.978 416.412 649.471 419.077 652.964 421.741 658.31 421.741 663.656 421.741 666.355 419.839 669.055 417.937 671.068 416.774 673.082 415.611 676.402 418.92 679.721 422.23 678.693 423.887 677.666 425.545 671.57 428.635 665.475 431.726 660.244 432.214 655.014 432.702ZM828.76 430.932 823.724 429.137 820.201 426.299 816.678 423.462 814.064 419.749 811.451 416.035 810.436 410.491 809.421 404.946 810.46 400.1 811.499 395.255 813.412 392.16 815.324 389.066 818.643 386.152 821.961 383.239 825.976 381.137 829.991 379.035 838.075 378.991 846.158 378.948 850.778 381.222 855.398 383.496 858.617 386.715 861.836 389.934 863.96 393.951 866.084 397.967 866.084 405.099 866.084 412.231 863.554 417.072 861.024 421.912 857.445 425.055 853.866 428.197 849.985 429.914 846.104 431.63 839.951 432.179 833.799 432.727ZM846.679 419.123 849.859 416.98 851.733 413.771 853.607 410.562 853.607 405.109 853.607 399.655 851.511 396.263 849.414 392.872 845.346 390.902 841.278 388.933 838.096 388.933 834.913 388.933 830.871 391.302 826.829 393.671 824.844 396.882 822.859 400.093 822.859 405.575 822.859 411.056 824.899 414.357 826.939 417.658 829.892 419.458 832.844 421.258 838.172 421.262 843.499 421.266ZM941.254 431.404 937.45 430.144 934.548 428.631 931.646 427.117 927.779 422.923 923.913 418.728 922.62 415.004 921.327 411.28 921.347 404.624 921.367 397.967 924.13 392.904 926.892 387.842 930.269 385.189 933.646 382.537 936.763 380.942 939.881 379.347 945.853 378.789 951.825 378.231 957 379.738 962.175 381.244 966.239 384.236 970.302 387.228 973.195 391.433 976.088 395.637 977.106 401.109 978.123 406.58 976.56 411.958 974.996 417.335 971.872 421.44 968.747 425.545 962.608 428.65 956.469 431.754 950.763 432.209 945.057 432.664ZM955.989 420.077 960.19 417.937 962.371 413.746 964.553 409.555 964.553 405.395 964.553 401.234 963.256 398.13 961.958 395.025 958.948 392.492 955.938 389.959 952.638 389.34 949.337 388.721 945.952 389.356 942.567 389.991 938.72 393.467 934.873 396.942 933.949 399.357 933.024 401.771 933.014 405.706 933.005 409.642 934.42 412.363 935.836 415.084 938.066 417.161 940.296 419.237 943.149 420.721 946.002 422.205 948.891 422.21 951.78 422.216ZM1006.14 431.642 1002.56 430.799 998.889 428.925 995.215 427.051 991.277 422.577 987.339 418.103 985.818 412.872 984.298 407.641 984.919 402.356 985.54 397.07 987.848 393.132 990.156 389.194 993.547 386.216 996.938 383.239 1000.95 381.1 1004.97 378.961 1013.53 378.961 1022.09 378.961 1026.37 381.205 1030.64 383.449 1032.31 384.912 1033.97 386.375 1033.96 387.891 1033.95 389.408 1030.68 391.64 1027.4 393.871 1022.1 391.281 1016.81 388.69 1012.53 389.172 1008.26 389.654 1004.49 392.147 1000.72 394.641 998.8 398.406 996.88 402.17 996.901 405.299 996.921 408.428 998.699 412.342 1000.48 416.256 1003.67 418.681 1006.86 421.105 1010.43 421.767 1014 422.428 1017.29 421.809 1020.59 421.191 1022.05 419.734 1023.51 418.277 1023.51 411.688 1023.51 405.099 1028.74 405.099 1033.97 405.099 1034.04 410.567 1034.11 416.035 1034.33 419.364 1034.55 422.692 1033.65 424.79 1032.75 426.887 1028.84 428.712 1024.93 430.537 1019.89 431.607 1014.85 432.677 1012.29 432.582 1009.72 432.486ZM1136.75 431.671 1132.54 430.818 1128.19 428.657 1123.84 426.496 1123.53 423.823 1123.23 421.151 1124.36 419.782 1125.5 418.413 1127.08 418.413 1128.67 418.413 1132.4 420.315 1136.13 422.217 1142.37 422.217 1148.62 422.217 1150.73 420.736 1152.84 419.256 1152.84 416.966 1152.84 414.676 1150.83 413.596 1148.81 412.516 1141.08 410.386 1133.35 408.255 1130.22 406.631 1127.08 405.007 1125.23 401.962 1123.37 398.918 1123.37 395.244 1123.37 391.569 1125.5 387.78 1127.63 383.991 1131.92 381.47 1136.2 378.948 1144.29 378.948 1152.37 378.948 1156.89 380.691 1161.41 382.435 1161.96 384.644 1162.52 386.854 1161.4 388.945 1160.28 391.037 1157.27 390.242 1154.27 389.447 1145.87 389.428 1137.47 389.408 1136.22 391.117 1134.98 392.825 1135.48 394.744 1135.98 396.663 1137.99 397.923 1140.01 399.183 1147.61 400.824 1155.22 402.464 1157.72 403.748 1160.22 405.031 1162.72 407.991 1165.21 410.951 1165.21 415.492 1165.21 420.033 1163.07 423.265 1160.93 426.496 1155.7 429.046 1150.47 431.595 1145.71 432.059 1140.96 432.524ZM790.051 430.415 787.198 429.132 779.07 419.731 770.943 410.329 767.737 406.288 764.532 402.246 763.978 402.245 763.424 402.244 763.731 416.555 764.038 430.866 757.55 430.583 751.061 430.3 750.779 408.428 750.496 386.555 751.074 382.514 751.653 378.472 754.686 378.506 757.718 378.539 759.807 379.701 761.895 380.862 767.89 387.569 773.884 394.276 779.84 401.589 785.796 408.903 786.844 408.903 787.892 408.903 787.545 393.925 787.198 378.948 790.911 378.644 794.624 378.34 796.87 378.903 799.116 379.467 798.863 405.359 798.609 431.251 795.757 431.474 792.904 431.697ZM878.205 430.585 877.064 429.444 877.064 404.498 877.064 379.551 878.954 378.952 880.843 378.352 885.135 378.995 889.427 379.639 889.427 400.425 889.427 421.212 902.502 421.476 915.578 421.741 915.862 426.108 916.146 430.476 903.111 431.101 890.077 431.726 884.712 431.726 879.346 431.726ZM544.139 416.748 544.052 402.722 543.849 400.344 543.646 397.967 543.461 393.925 543.276 389.884 536.697 389.884 530.118 389.884 528.613 389.306 527.109 388.729 527.109 383.601 527.109 378.472 548.744 378.487 570.378 378.501 571.625 379.292 572.872 380.083 572.576 384.745 572.28 389.408 563.959 389.683 555.638 389.958 555.638 410.366 555.638 430.775 549.932 430.775 544.227 430.775ZM581.743 429.571 581.281 428.367 581.535 403.657 581.79 378.948 596.074 378.686 610.357 378.425 615.568 379.175 620.779 379.925 620.779 384.191 620.779 388.457 607.466 388.933 594.152 389.408 593.867 394.876 593.582 400.344 605.395 400.344 617.208 400.344 617.825 404.206 618.443 408.067 617.891 408.961 617.339 409.854 605.462 409.854 593.586 409.854 593.869 415.797 594.152 421.741 607.466 421.741 620.779 421.741 621.478 422.692 622.177 423.643 622.191 427.209 622.206 430.775 602.206 430.775 582.205 430.775ZM690.301 429.271 689.724 427.767 689.724 404.624 689.724 381.481 690.301 379.976 690.879 378.472 696.483 378.472 702.087 378.472 702.101 387.744 702.115 397.016 702.89 398.237 703.665 399.459 714.525 399.188 725.385 398.918 725.86 388.933 726.336 378.948 731.804 378.662 737.272 378.377 737.272 404.576 737.272 430.775 731.566 430.775 725.86 430.775 725.86 420.79 725.86 410.805 721.105 410.646 716.351 410.488 709.932 410.409 703.513 410.329 703.285 416.511 703.057 422.692 702.513 426.734 701.97 430.775 696.424 430.775 690.878 430.775ZM1047.51 404.861 1047.76 378.948 1051.77 378.657 1055.77 378.366 1057.71 379.404 1059.65 380.441 1059.65 405.608 1059.65 430.775 1053.45 430.775 1047.26 430.775ZM1074.14 404.861 1074.39 378.948 1092.93 378.713 1111.48 378.479 1112.79 379.321 1114.1 380.164 1113.44 384.548 1112.79 388.933 1100.12 388.933 1087.46 388.933 1086.48 390.121 1085.5 391.31 1086.01 395.827 1086.52 400.344 1098.81 400.344 1111.11 400.344 1110.82 404.861 1110.53 409.378 1098.64 409.854 1086.75 410.329 1086.47 415.768 1086.18 421.206 1088.37 421.716 1090.56 422.226 1102.44 422.459 1114.33 422.692 1114.62 426.734 1114.91 430.775 1094.4 430.775 1073.88 430.775ZM138.165 343.343 138.165 278.733 136.976 277.975 135.788 277.217 119.621 270.931 103.455 264.646 103.15 254.278 102.846 243.911 103.471 233.392 104.095 222.874 125.703 212.103 147.311 201.331 149.633 202.573 151.954 203.814 165.384 212.59 178.815 221.367 180.838 222.449 182.86 223.532 182.744 296.485 182.627 369.438 182.031 379.29 181.434 389.143 172.753 392.238 164.072 395.334 153.258 400.329 142.444 405.324 140.943 406.638 139.442 407.952 138.803 407.952 138.165 407.952ZM334.539 396.008 327.882 392.774 321.124 390.419 314.366 388.065 298.796 384.635 283.227 381.206 282.731 380.711 282.236 380.216 281.913 275.451 281.591 170.686 282.265 135.129 282.939 99.572 292.062 89.0075 301.186 78.4429 305.642 73.6881 310.099 68.9333 315.098 62.9898 320.098 57.0463 320.747 57.0463 321.396 57.0463 322.411 59.2738 323.426 61.5014 339.977 80.4328 356.529 99.3642 357.122 100.945 357.714 102.526 357.907 224.79 358.101 347.054 356.819 348.599 355.537 350.143 350.053 353.867 344.57 357.591 343.589 359.423 342.609 361.255 343.236 380.324 343.863 399.393 342.529 399.318 341.196 399.242ZM195.139 368.056 195.055 350.419 194.901 282.425 194.747 214.431 195.029 191.132 195.312 167.834 204.962 162.128 214.612 156.422 222.748 151.925 230.884 147.428 232.786 147.981 234.688 148.533 252.485 158.183 270.283 167.834 270.316 273.999 270.349 380.164 246.337 380.671 222.325 381.178 208.774 383.436 195.223 385.693ZM119.446 361.186 113.565 350.581 85.4492 350.808 57.333 351.035 57.333 326.812 57.333 302.588 61.6024 294.171 65.8717 285.753 72.193 276.957 78.5142 268.16 80.2053 268.16 81.8963 268.16 91.2491 272.023 100.602 275.886 112.489 280.655 124.376 285.425 125.209 286.232 126.042 287.038 126.16 329.427 126.278 371.815 125.802 371.803 125.327 371.791ZM619.305 349.914 618.06 349.144 614.189 339.321 610.319 329.497 603.186 328.775 596.054 328.053 578.475 328.3 560.897 328.547 556.618 339.245 552.339 349.943 539.249 349.943 526.158 349.943 526.158 349.634 526.158 349.326 531.468 337.51 536.778 325.694 544.207 309.052 551.636 292.41 560.743 272.075 569.85 251.741 571.325 249.49 572.799 247.239 584.427 247.254 596.054 247.268 597.288 248.051 598.522 248.834 609.775 272.999 621.028 297.165 625.53 306.674 630.031 316.184 637.558 332.718 645.085 349.253 644.819 349.472 644.553 349.692 632.551 350.187 620.549 350.683ZM599.93 307.388 599.398 305.723 592.435 289.557 585.472 273.391 584.667 273.391 583.863 273.391 580.177 282.425 576.49 291.459 573.196 298.909 569.903 306.359 569.903 307.705 569.903 309.052 585.182 309.052 600.462 309.052ZM662.376 350.19 656.424 349.852 656.67 298.783 656.916 247.715 669.278 247.715 681.641 247.715 681.889 288.844 682.137 329.973 708.278 329.973 734.419 329.973 734.419 339.817 734.419 349.661 726.574 350.272 718.729 350.883 693.528 350.705 668.327 350.528ZM958.732 350.15 948.633 349.881 947.936 320.087 947.239 290.293 947.941 268.658 948.644 247.023 977.282 247.489 1005.92 247.955 1013.05 250.017 1020.18 252.079 1025.15 255.464 1030.12 258.85 1033.02 263.224 1035.92 267.599 1037.32 272.331 1038.73 277.064 1038.72 284.262 1038.71 291.459 1037.37 295.879 1036.02 300.298 1034.57 303.107 1033.12 305.917 1029.53 309.068 1025.94 312.219 1022.75 314.102 1019.56 315.985 1019.96 317.535 1020.37 319.086 1030.5 334.06 1040.63 349.035 1040.63 349.515 1040.63 349.995 1027.08 349.732 1013.53 349.468 1004.02 335.203 994.508 320.939 984.047 320.939 973.587 320.939 973.325 335.335 973.063 349.731 970.947 350.075 968.832 350.419ZM999.385 300.183 1005.21 298.961 1007.6 297.399 1009.98 295.837 1011.99 291.683 1014 287.53 1014 283.216 1014 278.902 1011.84 275.694 1009.68 272.485 1006.59 270.402 1003.5 268.318 996.624 267.698 989.753 267.078 981.67 267.381 973.587 267.685 973.325 283.339 973.062 298.994 973.533 300.219 974.003 301.444 983.78 301.424 993.557 301.404ZM762.948 309.154 762.948 268.364 761.444 267.787 759.94 267.209 744.802 267.209 729.665 267.209 729.665 257.224 729.665 247.239 775.786 247.239 821.908 247.239 821.908 257.224 821.908 267.209 806.63 267.209 791.352 267.209 789.513 268.194 787.673 269.178 787.673 309.561 787.673 349.943 775.311 349.943 762.948 349.943ZM817.153 349.57 817.153 349.143 820.355 341.698 823.556 334.252 828.303 323.316 833.049 312.38 841.876 293.361 850.702 274.342 856.246 261.526 861.79 248.711 863.484 248.042 865.177 247.373 876.282 247.306 887.387 247.239 889.231 249.583 891.075 251.928 900.37 272.169 909.665 292.41 917.072 308.101 924.478 323.792 930.154 336.867 935.829 349.943 922.26 349.943 908.69 349.943 905.184 341.147 901.677 332.35 900.285 330.211 898.892 328.071 875.566 328.071 852.239 328.071 849.587 334.015 846.934 339.958 845.089 344.713 843.244 349.468 830.199 349.732 817.153 349.997ZM889.284 302.633 886.369 296.214 883.27 289.082 880.172 281.949 878.02 277.394 875.868 272.838 874.919 273.155 873.971 273.471 870.87 281.989 867.77 290.508 863.858 299.347 859.947 308.186 859.947 308.619 859.947 309.052 876.073 309.052 892.2 309.052ZM1046.66 348.563 1047.19 347.183 1056.25 327.404 1065.31 307.625 1078.41 278.186 1091.51 248.746 1093.88 248.088 1096.26 247.429 1106.3 247.334 1116.34 247.239 1117.94 248.428 1119.54 249.616 1125.61 262.93 1131.68 276.243 1143.83 302.395 1155.97 328.546 1160.59 338.87 1165.21 349.194 1165.21 349.595 1165.21 349.995 1151.72 349.732 1138.23 349.468 1134.67 340.532 1131.1 331.596 1129.58 330.071 1128.05 328.546 1104.89 328.232 1081.73 327.918 1078.89 333.938 1076.06 339.958 1073.92 344.951 1071.78 349.943 1058.95 349.943 1046.13 349.943ZM1119.59 304.535 1117.74 300.018 1112.39 287.655 1107.03 275.293 1106.18 274.405 1105.33 273.517 1104.79 274.05 1104.26 274.583 1097.55 289.678 1090.83 304.772 1090.34 306.912 1089.86 309.052 1105.65 309.052 1121.43 309.052ZM369.754 268.874 369.079 202.068 369.402 196.461 369.725 190.854 371.151 190.057 372.578 189.26 390.982 180.578 409.386 171.897 411.465 173.009 413.544 174.122 425.496 185.718 437.448 197.313 439.961 200.732 442.473 204.15 442.473 227.967 442.473 251.784 431.3 252.346 420.126 252.909 405.28 253.496 390.435 254.084 389.475 260.921 388.516 267.758 383.454 279.609 378.391 291.459 378.008 310.954 377.624 330.448 375.161 333.064 372.697 335.679 371.563 335.679 370.43 335.679Z" fill="#003B46" fill-opacity="0.854902" transform="matrix(1.00001 0 0 1 -0.00979564 41.4278)"/><path d="M146.367 247.236 147.704 245.906 148.982 247.266Z" fill="#262626" fill-opacity="0.854902" transform="matrix(1.00001 0 0 1 -0.00979564 41.4278)"/></g></svg>