<svg width="501" height="502" xmlns="http://www.w3.org/2000/svg" xmlns:xlink="http://www.w3.org/1999/xlink" xml:space="preserve" overflow="hidden"><defs><clipPath id="clip0"><rect x="394" y="109" width="501" height="502"/></clipPath><clipPath id="clip1"><rect x="394" y="109" width="499" height="502"/></clipPath><clipPath id="clip2"><rect x="387" y="109" width="506" height="502"/></clipPath><clipPath id="clip3"><rect x="387" y="109" width="506" height="502"/></clipPath></defs><g clip-path="url(#clip0)" transform="translate(-394 -109)"><g clip-path="url(#clip1)"><g clip-path="url(#clip2)"><g clip-path="url(#clip3)"><path d="M230.731 553.037 220.278 552.297 208.027 550.763 195.776 549.229 194.96 548.724 194.143 548.22 194.158 500.997 194.172 453.773 194.871 452.777 195.569 451.782 200.32 449.083 205.072 446.385 218.628 438.353 232.185 430.32 245.238 437.721 258.291 445.123 264.239 448.328 270.187 451.533 269.941 502.546 269.695 553.559 255.44 553.668 241.185 553.778ZM313.886 546.456 309.609 543.775 296.304 535.758 283 527.742 282.754 476.299 282.508 424.857 289.406 420.211 296.304 415.564 307.609 408.765 318.913 401.965 327.566 406.631 336.218 411.298 347.147 417.413 358.076 423.528 358.076 458.608 358.076 493.688 357.601 516.44 357.126 539.193 351.424 540.928 345.722 542.663 332.522 545.972 319.322 549.282 318.742 549.209 318.162 549.136ZM136.173 533.803 124.294 528.788 115.266 524.037 106.237 519.285 106.237 488.567 106.237 457.849 124.294 450.871 142.35 443.892 145.426 442.275 148.502 440.658 153.979 444.254 159.456 447.849 171.098 455.977 182.739 464.105 182.739 489.175 182.739 514.245 181.718 516.152 180.697 518.06 165.325 528.207 149.953 538.353 149.002 538.585 148.052 538.817ZM386.046 520.76 379.934 516.946 374.945 514.017 369.955 511.087 369.955 464.696 369.955 418.305 367.081 415.886 364.207 413.468 359.535 410.841 354.862 408.215 354.344 406.285 353.826 404.356 353.813 384.314 353.8 364.272 355.938 363.234 358.076 362.197 370.431 351.656 382.785 341.116 385.161 341.606 387.537 342.097 409.616 348.518 431.695 354.939 432.302 417.398 432.908 479.858 432.237 489.701 431.566 499.545 420.955 507.539 410.345 515.533 402.828 520.053 395.311 524.573 393.734 524.573 392.158 524.573ZM74.1342 495.933 72.6016 495.075 66.7581 487.254 60.9146 479.432 57.6671 473.017 54.4196 466.602 53.0063 461.176 51.5931 455.75 51.5931 408.908 51.5931 362.066 79.5557 362.066 107.518 362.066 110.139 367.241 112.759 372.417 119.239 381.454 125.719 390.491 125.719 413.274 125.719 436.056 124.358 437.417 122.997 438.778 110.341 443.768 97.6843 448.757 96.0838 450.168 94.4833 451.579 94.9408 463.13 95.3983 474.681 94.6406 482.651 93.883 490.62 87.2306 492.888 80.5783 495.156 78.1225 495.973 75.6668 496.791ZM443.944 465.89 443.806 453.773 443.231 399.619 442.656 345.464 433.628 342.792 424.6 340.12 407.494 335.53 390.388 330.94 390.13 312.239 389.872 293.539 391.312 289.552 392.752 285.564 396.433 275.11 400.114 264.657 412.832 264.059 425.55 263.461 440.755 263.109 455.961 262.756 455.961 361.116 455.961 459.475 452.894 465.951 449.827 472.426 447.84 475.217 445.853 478.007 444.967 478.007 444.081 478.007ZM648.57 430.347 642.56 428.277 637.947 424.13 633.335 419.984 631.63 415.519 629.925 411.054 629.925 404.302 629.925 397.55 632.329 392.875 634.734 388.2 639.431 384.64 644.127 381.08 648.728 379.546 653.329 378.011 659.182 378.394 665.034 378.777 669.436 380.987 673.838 383.198 676.564 385.405 679.289 387.612 675.862 391.08 672.435 394.548 667.232 391.612 662.03 388.676 658.496 388.676 654.961 388.676 651.92 390.216 648.879 391.756 647.118 393.302 645.358 394.848 643.894 397.679 642.43 400.51 642.43 405.306 642.43 410.103 643.99 413.12 645.551 416.137 649.041 418.799 652.532 421.462 657.875 421.462 663.217 421.462 665.915 419.561 668.612 417.661 670.625 416.498 672.637 415.336 675.954 418.643 679.271 421.951 678.244 423.607 677.218 425.263 671.126 428.352 665.034 431.44 659.808 431.928 654.581 432.416ZM828.212 430.647 823.18 428.853 819.659 426.017 816.138 423.182 813.526 419.471 810.914 415.76 809.9 410.219 808.885 404.678 809.924 399.836 810.962 394.993 812.874 391.901 814.785 388.808 818.101 385.897 821.417 382.985 825.43 380.885 829.442 378.784 837.52 378.741 845.598 378.697 850.215 380.97 854.832 383.243 858.049 386.459 861.266 389.676 863.388 393.69 865.511 397.704 865.511 404.831 865.511 411.959 862.983 416.796 860.454 421.633 856.878 424.773 853.301 427.914 849.423 429.629 845.544 431.345 839.396 431.893 833.247 432.441ZM846.119 418.845 849.297 416.704 851.169 413.497 853.042 410.29 853.042 404.841 853.042 399.391 850.948 396.001 848.853 392.612 844.787 390.644 840.721 388.676 837.541 388.676 834.361 388.676 830.321 391.043 826.282 393.41 824.298 396.62 822.315 399.829 822.315 405.306 822.315 410.784 824.354 414.083 826.392 417.381 829.343 419.181 832.293 420.98 837.617 420.984 842.941 420.987ZM940.632 431.118 936.83 429.859 933.93 428.347 931.03 426.835 927.166 422.643 923.302 418.451 922.01 414.73 920.718 411.008 920.738 404.356 920.758 397.704 923.518 392.645 926.279 387.585 929.654 384.934 933.028 382.284 936.144 380.69 939.259 379.096 945.227 378.538 951.195 377.981 956.367 379.487 961.538 380.992 965.599 383.982 969.66 386.972 972.551 391.174 975.442 395.376 976.459 400.843 977.476 406.311 975.914 411.685 974.352 417.059 971.229 421.161 968.106 425.263 961.971 428.366 955.836 431.469 950.134 431.923 944.432 432.378ZM955.356 419.799 959.555 417.661 961.735 413.472 963.915 409.284 963.915 405.126 963.915 400.969 962.619 397.866 961.322 394.764 958.314 392.233 955.306 389.701 952.008 389.083 948.709 388.464 945.326 389.099 941.944 389.733 938.099 393.207 934.255 396.68 933.331 399.092 932.407 401.505 932.397 405.438 932.388 409.371 933.802 412.09 935.217 414.81 937.445 416.885 939.674 418.96 942.525 420.443 945.376 421.926 948.263 421.931 951.15 421.937ZM1005.48 431.357 1001.9 430.514 998.228 428.641 994.557 426.768 990.621 422.297 986.686 417.826 985.166 412.599 983.647 407.372 984.267 402.09 984.888 396.808 987.195 392.872 989.501 388.936 992.89 385.961 996.279 382.985 1000.29 380.848 1004.3 378.711 1012.86 378.711 1021.41 378.711 1025.69 380.953 1029.96 383.195 1031.63 384.657 1033.29 386.119 1033.28 387.635 1033.27 389.151 1030 391.381 1026.72 393.611 1021.43 391.022 1016.14 388.433 1011.86 388.915 1007.59 389.396 1003.82 391.888 1000.06 394.38 998.14 398.142 996.22 401.904 996.241 405.031 996.262 408.157 998.038 412.069 999.815 415.981 1003.01 418.404 1006.2 420.827 1009.76 421.488 1013.33 422.149 1016.62 421.53 1019.92 420.912 1021.37 419.456 1022.83 418 1022.83 411.416 1022.83 404.831 1028.06 404.831 1033.28 404.831 1033.36 410.296 1033.43 415.76 1033.65 419.086 1033.86 422.412 1032.96 424.509 1032.07 426.605 1028.16 428.428 1024.26 430.252 1019.22 431.321 1014.18 432.391 1011.62 432.295 1009.05 432.2ZM1136 431.385 1131.79 430.533 1127.45 428.373 1123.1 426.214 1122.79 423.543 1122.48 420.872 1123.62 419.504 1124.75 418.136 1126.34 418.136 1127.92 418.136 1131.65 420.037 1135.38 421.937 1141.62 421.937 1147.86 421.937 1149.97 420.458 1152.08 418.978 1152.08 416.69 1152.08 414.401 1150.06 413.322 1148.05 412.243 1140.32 410.114 1132.6 407.985 1129.47 406.362 1126.34 404.739 1124.48 401.697 1122.63 398.654 1122.63 394.982 1122.63 391.31 1124.76 387.524 1126.88 383.737 1131.17 381.217 1135.45 378.697 1143.53 378.697 1151.61 378.697 1156.12 380.439 1160.64 382.182 1161.19 384.39 1161.75 386.598 1160.63 388.688 1159.51 390.779 1156.51 389.984 1153.51 389.19 1145.11 389.17 1136.72 389.151 1135.47 390.858 1134.23 392.565 1134.73 394.483 1135.23 396.401 1137.24 397.66 1139.25 398.919 1146.85 400.559 1154.46 402.198 1156.96 403.48 1159.46 404.763 1161.95 407.721 1164.44 410.679 1164.44 415.217 1164.44 419.755 1162.3 422.985 1160.16 426.214 1154.93 428.762 1149.71 431.31 1144.95 431.774 1140.2 432.237ZM789.528 430.13 786.677 428.848 778.555 419.453 770.433 410.058 767.229 406.019 764.026 401.98 763.473 401.979 762.919 401.978 763.226 416.28 763.532 430.581 757.049 430.298 750.565 430.015 750.282 408.157 749.999 386.3 750.578 382.261 751.156 378.222 754.187 378.255 757.217 378.289 759.304 379.449 761.391 380.61 767.382 387.312 773.373 394.015 779.324 401.324 785.276 408.632 786.324 408.632 787.371 408.632 787.024 393.665 786.677 378.697 790.388 378.393 794.099 378.09 796.343 378.653 798.587 379.216 798.334 405.091 798.081 430.965 795.23 431.189 792.379 431.412ZM877.624 430.3 876.484 429.16 876.484 404.23 876.484 379.3 878.372 378.701 880.26 378.102 884.549 378.745 888.838 379.388 888.838 400.161 888.838 420.933 901.905 421.198 914.973 421.462 915.256 425.827 915.54 430.191 902.514 430.816 889.488 431.441 884.126 431.441 878.765 431.441ZM543.779 416.473 543.692 402.455 543.489 400.08 543.286 397.704 543.101 393.665 542.916 389.626 536.342 389.626 529.767 389.626 528.264 389.049 526.761 388.472 526.761 383.347 526.761 378.222 548.381 378.236 570.001 378.251 571.247 379.041 572.493 379.831 572.197 384.491 571.901 389.151 563.586 389.425 555.271 389.7 555.271 410.095 555.271 430.49 549.569 430.49 543.867 430.49ZM581.359 429.287 580.897 428.083 581.151 403.39 581.405 378.697 595.679 378.436 609.954 378.175 615.161 378.924 620.369 379.673 620.369 383.937 620.369 388.2 607.064 388.676 593.759 389.151 593.474 394.615 593.189 400.08 604.994 400.08 616.8 400.08 617.417 403.939 618.034 407.798 617.482 408.69 616.93 409.583 605.062 409.583 593.193 409.583 593.476 415.522 593.759 421.462 607.064 421.462 620.369 421.462 621.067 422.412 621.765 423.363 621.779 426.926 621.794 430.49 601.807 430.49 581.82 430.49ZM689.845 428.987 689.268 427.484 689.268 404.356 689.268 381.228 689.845 379.725 690.422 378.222 696.022 378.222 701.622 378.222 701.637 387.488 701.651 396.753 702.425 397.974 703.2 399.194 714.052 398.924 724.905 398.654 725.38 388.676 725.855 378.697 731.32 378.412 736.784 378.127 736.784 404.309 736.784 430.49 731.082 430.49 725.38 430.49 725.38 420.512 725.38 410.533 720.628 410.375 715.877 410.216 709.462 410.137 703.047 410.058 702.819 416.235 702.591 422.412 702.048 426.451 701.505 430.49 695.963 430.49 690.421 430.49ZM1046.82 404.594 1047.07 378.697 1051.07 378.407 1055.07 378.116 1057.01 379.153 1058.95 380.189 1058.95 405.34 1058.95 430.49 1052.76 430.49 1046.56 430.49ZM1073.43 404.594 1073.68 378.697 1092.21 378.463 1110.74 378.229 1112.05 379.07 1113.36 379.912 1112.71 384.294 1112.05 388.676 1099.4 388.676 1086.74 388.676 1085.76 389.863 1084.78 391.051 1085.29 395.565 1085.8 400.08 1098.09 400.08 1110.37 400.08 1110.08 404.594 1109.79 409.108 1097.91 409.583 1086.03 410.058 1085.75 415.493 1085.46 420.927 1087.65 421.437 1089.83 421.947 1101.71 422.18 1113.59 422.412 1113.88 426.451 1114.18 430.49 1093.67 430.49 1073.17 430.49ZM138.074 343.116 138.074 278.549 136.886 277.791 135.698 277.033 119.542 270.752 103.386 264.471 103.082 254.11 102.778 243.749 103.402 233.238 104.026 222.727 125.62 211.962 147.214 201.198 149.534 202.439 151.853 203.679 165.275 212.45 178.697 221.22 180.718 222.302 182.739 223.384 182.623 296.289 182.506 369.194 181.91 379.039 181.314 388.885 172.638 391.979 163.963 395.072 153.157 400.064 142.35 405.056 140.85 406.369 139.349 407.682 138.711 407.682 138.074 407.682ZM334.318 395.746 327.665 392.514 320.912 390.161 314.158 387.808 298.599 384.381 283.039 380.954 282.544 380.46 282.049 379.965 281.727 275.269 281.404 170.574 282.078 135.04 282.752 99.5062 291.869 88.9486 300.987 78.3911 305.44 73.6394 309.893 68.8877 314.89 62.9481 319.887 57.0085 320.535 57.0085 321.183 57.0085 322.197 59.2346 323.212 61.4608 339.753 80.3796 356.293 99.2984 356.886 100.879 357.478 102.459 357.671 224.642 357.864 346.824 356.583 348.368 355.302 349.912 349.822 353.633 344.342 357.354 343.362 359.185 342.382 361.016 343.009 380.073 343.635 399.129 342.303 399.054 340.97 398.978ZM195.01 367.812 194.926 350.187 194.772 282.238 194.618 214.289 194.9 191.006 195.182 167.723 204.826 162.021 214.47 156.319 222.6 151.825 230.731 147.331 232.632 147.883 234.533 148.434 252.318 158.078 270.104 167.723 270.137 273.818 270.17 379.913 246.174 380.419 222.178 380.926 208.636 383.182 195.094 385.438ZM119.367 360.947 113.49 350.349 85.3927 350.576 57.2951 350.803 57.2951 326.596 57.2951 302.388 61.5616 293.976 65.8282 285.564 72.1452 276.774 78.4623 267.983 80.1522 267.983 81.8422 267.983 91.1887 271.843 100.535 275.703 112.415 280.47 124.294 285.236 125.126 286.042 125.958 286.849 126.076 329.209 126.194 371.569 125.719 371.557 125.244 371.545ZM618.895 349.682 617.652 348.913 613.783 339.096 609.915 329.28 602.787 328.558 595.66 327.836 578.093 328.083 560.526 328.329 556.25 339.02 551.974 349.712 538.892 349.712 525.81 349.712 525.81 349.403 525.81 349.095 531.117 337.286 536.423 325.478 543.847 308.847 551.271 292.216 560.372 271.895 569.473 251.574 570.947 249.325 572.421 247.076 584.04 247.09 595.66 247.105 596.893 247.887 598.126 248.669 609.372 272.819 620.617 296.968 625.116 306.471 629.615 315.975 637.137 332.498 644.659 349.022 644.393 349.241 644.127 349.461 632.133 349.956 620.139 350.451ZM599.533 307.184 599.002 305.521 592.043 289.365 585.084 273.21 584.281 273.21 583.477 273.21 579.793 282.238 576.108 291.266 572.817 298.711 569.526 306.157 569.526 307.502 569.526 308.847 584.795 308.847 600.065 308.847ZM661.938 349.958 655.99 349.621 656.236 298.586 656.481 247.551 668.836 247.551 681.19 247.551 681.438 288.653 681.685 329.755 707.81 329.755 733.934 329.755 733.934 339.592 733.934 349.43 726.093 350.04 718.253 350.651 693.069 350.473 667.885 350.296ZM958.098 349.918 948.005 349.65 947.309 319.876 946.612 290.101 947.314 268.48 948.017 246.859 976.636 247.325 1005.25 247.791 1012.38 249.851 1019.51 251.912 1024.47 255.295 1029.44 258.678 1032.34 263.05 1035.23 267.422 1036.64 272.151 1038.04 276.881 1038.03 284.074 1038.02 291.266 1036.68 295.683 1035.34 300.1 1033.89 302.907 1032.44 305.714 1028.85 308.863 1025.26 312.013 1022.07 313.894 1018.88 315.776 1019.29 317.325 1019.69 318.875 1029.82 333.839 1039.94 348.804 1039.94 349.284 1039.94 349.764 1026.4 349.5 1012.86 349.237 1003.35 334.982 993.85 320.727 983.396 320.727 972.943 320.727 972.681 335.113 972.419 349.499 970.305 349.843 968.191 350.187ZM998.724 299.984 1004.55 298.763 1006.93 297.202 1009.31 295.641 1011.32 291.491 1013.33 287.34 1013.33 283.029 1013.33 278.718 1011.17 275.511 1009.01 272.305 1005.92 270.223 1002.83 268.141 995.965 267.521 989.099 266.901 981.021 267.204 972.943 267.508 972.681 283.152 972.419 298.796 972.889 300.02 973.358 301.245 983.129 301.225 992.9 301.205ZM762.444 308.949 762.444 268.186 760.94 267.609 759.437 267.033 744.31 267.033 729.182 267.033 729.182 257.054 729.182 247.076 775.273 247.076 821.365 247.076 821.365 257.054 821.365 267.033 806.097 267.033 790.829 267.033 788.991 268.016 787.152 269 787.152 309.356 787.152 349.712 774.798 349.712 762.444 349.712ZM816.613 349.339 816.613 348.912 819.812 341.472 823.011 334.031 827.755 323.102 832.498 312.174 841.319 293.167 850.14 274.16 855.68 261.353 861.22 248.546 862.912 247.878 864.605 247.209 875.702 247.142 886.8 247.076 888.642 249.418 890.485 251.761 899.774 271.989 909.063 292.216 916.465 307.897 923.867 323.578 929.539 336.645 935.21 349.712 921.65 349.712 908.089 349.712 904.585 340.921 901.081 332.131 899.689 329.992 898.298 327.854 874.987 327.854 851.675 327.854 849.025 333.794 846.374 339.733 844.53 344.485 842.686 349.237 829.649 349.501 816.613 349.765ZM888.696 302.433 885.782 296.018 882.686 288.89 879.59 281.763 877.439 277.21 875.288 272.658 874.34 272.974 873.393 273.29 870.294 281.803 867.196 290.316 863.287 299.149 859.378 307.982 859.378 308.415 859.378 308.847 875.494 308.847 891.61 308.847ZM1045.97 348.333 1046.5 346.954 1055.55 327.188 1064.61 307.422 1077.7 278.002 1090.78 248.582 1093.16 247.923 1095.54 247.265 1105.57 247.17 1115.61 247.076 1117.2 248.263 1118.8 249.451 1124.86 262.756 1130.93 276.061 1143.07 302.195 1155.21 328.329 1159.82 338.646 1164.44 348.963 1164.44 349.363 1164.44 349.764 1150.96 349.5 1137.48 349.237 1133.92 340.307 1130.35 331.377 1128.83 329.853 1127.31 328.329 1104.16 328.015 1081.02 327.701 1078.18 333.717 1075.35 339.733 1073.21 344.722 1071.07 349.712 1058.25 349.712 1045.44 349.712ZM1118.85 304.333 1117 299.819 1111.65 287.465 1106.3 275.11 1105.45 274.223 1104.6 273.336 1104.06 273.869 1103.53 274.402 1096.82 289.486 1090.11 304.571 1089.62 306.709 1089.14 308.847 1104.91 308.847 1120.69 308.847ZM369.51 268.696 368.835 201.935 369.158 196.331 369.48 190.727 370.906 189.931 372.331 189.135 390.723 180.459 409.116 171.783 411.193 172.895 413.271 174.007 425.215 185.595 437.159 197.183 439.67 200.599 442.181 204.015 442.181 227.816 442.181 251.617 431.014 252.18 419.848 252.742 405.012 253.329 390.177 253.916 389.218 260.748 388.259 267.581 383.2 279.424 378.141 291.266 377.758 310.748 377.374 330.23 374.913 332.843 372.451 335.457 371.318 335.457 370.185 335.457Z" fill="#F3FCFC" fill-opacity="0.854902" transform="matrix(1.00017 0 0 1 388.259 50.8097)"/><path d="M146.27 247.072 147.606 245.743 148.883 247.102Z" fill="#262626" fill-opacity="0.854902" transform="matrix(1.00017 0 0 1 388.259 50.8097)"/></g></g></g></g></svg>