<svg id="Layer_1" data-name="Layer 1" xmlns="http://www.w3.org/2000/svg" viewBox="0 0 381.04 64.07"><defs><style>.cls-1{fill:#babbb1;}.cls-2{fill:#bbbbb1;}.cls-3{fill:#457fe5;}</style></defs><path class="cls-1" d="M65,46.17a.69.69,0,0,1-.25,0,.86.86,0,0,1-.2-.13.62.62,0,0,1-.14-.18.64.64,0,0,1-.05-.24.59.59,0,0,1,.05-.22.55.55,0,0,1,.14-.19.63.63,0,0,1,.2-.13A.7.7,0,0,1,65,45h4.07a.7.7,0,0,1,.25,0,.46.46,0,0,1,.2.13.45.45,0,0,1,.14.19.46.46,0,0,1,.06.22.5.5,0,0,1-.06.24.49.49,0,0,1-.14.18.58.58,0,0,1-.2.13.69.69,0,0,1-.25,0H67.9v4.44a.77.77,0,0,1-.07.34.88.88,0,0,1-.17.28.8.8,0,0,1-.27.18.71.71,0,0,1-.32.07.78.78,0,0,1-.58-.25.75.75,0,0,1-.18-.28.77.77,0,0,1-.07-.34V46.17Zm0,0"/><path class="cls-1" d="M78,51.48a.75.75,0,0,1-.39-.09.82.82,0,0,1-.24-.25,1,1,0,0,1-.14-.33,1.64,1.64,0,0,1,0-.38V46.17a3.33,3.33,0,0,1,0-.46.91.91,0,0,1,.14-.38.88.88,0,0,1,.31-.25,1.71,1.71,0,0,1,.56-.08H81a.53.53,0,0,1,.25,0,.82.82,0,0,1,.2.12.56.56,0,0,1,0,.82.82.82,0,0,1-.2.12.7.7,0,0,1-.25,0h-2.3V47.6h2.1a.7.7,0,0,1,.25,0,.82.82,0,0,1,.2.12.8.8,0,0,1,.13.19.56.56,0,0,1,0,.23.59.59,0,0,1,0,.22.59.59,0,0,1-.13.18.63.63,0,0,1-.2.13.69.69,0,0,1-.25,0h-2.1v1.56h2.42a.54.54,0,0,1,.22,0,.59.59,0,0,1,.19.13.57.57,0,0,1,.12.18.56.56,0,0,1,0,.23.59.59,0,0,1,0,.22.57.57,0,0,1-.12.18.59.59,0,0,1-.19.13.78.78,0,0,1-.22,0Zm0,0"/><path class="cls-1" d="M93.24,50.29a.59.59,0,0,1,.23.05.5.5,0,0,1,.19.13.7.7,0,0,1,.13.19.59.59,0,0,1,0,.23.62.62,0,0,1,0,.23,1.27,1.27,0,0,1-.13.19.62.62,0,0,1-.19.12.59.59,0,0,1-.23,0H90.18a.72.72,0,0,1-.4-.11.84.84,0,0,1-.26-.27,1.28,1.28,0,0,1-.13-.39,2.28,2.28,0,0,1,0-.45v-4.4a1,1,0,0,1,.06-.34,1.06,1.06,0,0,1,.18-.27.7.7,0,0,1,.26-.19.72.72,0,0,1,.33-.07.71.71,0,0,1,.32.07.7.7,0,0,1,.26.19.71.71,0,0,1,.18.27.8.8,0,0,1,.07.34v4.43Zm0,0"/><path class="cls-1" d="M101.92,51.48a.74.74,0,0,1-.38-.09.85.85,0,0,1-.25-.25,1,1,0,0,1-.13-.33,1.64,1.64,0,0,1,0-.38V46.17a3.33,3.33,0,0,1,0-.46.91.91,0,0,1,.14-.38.79.79,0,0,1,.31-.25,1.64,1.64,0,0,1,.55-.08H105a.47.47,0,0,1,.24,0,.56.56,0,0,1,.2.12.56.56,0,0,1,0,.82.56.56,0,0,1-.2.12.6.6,0,0,1-.24,0h-2.3V47.6h2.1a.6.6,0,0,1,.24,0,.67.67,0,0,1,.2.12.85.85,0,0,1,.14.19.56.56,0,0,1,0,.23.57.57,0,0,1,0,.22.62.62,0,0,1-.14.18.53.53,0,0,1-.2.13.61.61,0,0,1-.24,0h-2.1v1.56h2.41a.59.59,0,0,1,.23,0,.46.46,0,0,1,.18.13.59.59,0,0,1,.13.18.56.56,0,0,1,0,.23.57.57,0,0,1,0,.22.59.59,0,0,1-.13.18.46.46,0,0,1-.18.13.85.85,0,0,1-.23,0Zm0,0"/><path class="cls-1" d="M120.79,46.55l-.72,1.76c-.08.22-.17.43-.25.64l-.23.56c-.07.16-.12.29-.16.4l-.06.14a4.28,4.28,0,0,1-.2.43,1.61,1.61,0,0,1-.24.36,1,1,0,0,1-.3.25.8.8,0,0,1-.39.09.78.78,0,0,1-.35-.07.76.76,0,0,1-.28-.21,2.12,2.12,0,0,1-.24-.35,4.68,4.68,0,0,1-.22-.49l-1.41-3.49v4.26a.58.58,0,0,1,0,.26.6.6,0,0,1-.14.21.74.74,0,0,1-.21.13.53.53,0,0,1-.25,0,.66.66,0,0,1-.46-.18.6.6,0,0,1-.14-.21.58.58,0,0,1-.06-.26V46.71a5.16,5.16,0,0,1,0-.71,1.43,1.43,0,0,1,.16-.54.86.86,0,0,1,.34-.34,1.11,1.11,0,0,1,.58-.13,1,1,0,0,1,.82.38,2.61,2.61,0,0,1,.33.52c.1.21.22.46.34.77l1.19,2.87h0l1.21-2.87c.1-.26.21-.49.31-.7a2.58,2.58,0,0,1,.33-.52,1.31,1.31,0,0,1,.38-.33A.91.91,0,0,1,121,45a1.22,1.22,0,0,1,.49.09.85.85,0,0,1,.35.27,1.31,1.31,0,0,1,.2.48,3,3,0,0,1,.07.72v4.28a.75.75,0,0,1,0,.26.6.6,0,0,1-.14.21.74.74,0,0,1-.21.13.56.56,0,0,1-.25,0,.58.58,0,0,1-.26,0,.74.74,0,0,1-.21-.13.71.71,0,0,1-.18-.47Zm0,0"/><path class="cls-1" d="M132.08,51.48a.74.74,0,0,1-.38-.09,1,1,0,0,1-.25-.25,1,1,0,0,1-.13-.33,1.64,1.64,0,0,1,0-.38V46.17a3.33,3.33,0,0,1,0-.46.91.91,0,0,1,.14-.38.79.79,0,0,1,.31-.25,1.64,1.64,0,0,1,.55-.08h2.87a.47.47,0,0,1,.24,0,.56.56,0,0,1,.2.12.56.56,0,0,1,0,.82.56.56,0,0,1-.2.12.6.6,0,0,1-.24,0h-2.3V47.6H135a.6.6,0,0,1,.24,0,.67.67,0,0,1,.2.12.85.85,0,0,1,.14.19.56.56,0,0,1,.05.23.59.59,0,0,1-.05.22.62.62,0,0,1-.14.18.53.53,0,0,1-.2.13.61.61,0,0,1-.24,0h-2.1v1.56h2.41a.59.59,0,0,1,.23,0,.46.46,0,0,1,.18.13.59.59,0,0,1,.13.18.56.56,0,0,1,0,.23.57.57,0,0,1,0,.22.59.59,0,0,1-.13.18.46.46,0,0,1-.18.13.85.85,0,0,1-.23,0Zm0,0"/><path class="cls-1" d="M143.17,46.17a.59.59,0,0,1-.45-.17.49.49,0,0,1-.14-.18.64.64,0,0,1-.05-.24.59.59,0,0,1,.05-.22.45.45,0,0,1,.14-.19.53.53,0,0,1,.2-.13.7.7,0,0,1,.25,0h4.07a.7.7,0,0,1,.25,0,.53.53,0,0,1,.2.13.45.45,0,0,1,.14.19.59.59,0,0,1,0,.22.64.64,0,0,1,0,.24.49.49,0,0,1-.14.18.59.59,0,0,1-.45.17h-1.19v4.44A.93.93,0,0,1,146,51a1.12,1.12,0,0,1-.18.28.8.8,0,0,1-.27.18.71.71,0,0,1-.32.07.66.66,0,0,1-.32-.07.71.71,0,0,1-.27-.18.88.88,0,0,1-.17-.28.77.77,0,0,1-.07-.34V46.17Zm0,0"/><path class="cls-1" d="M157.18,50.61a.77.77,0,0,1-.07.34.75.75,0,0,1-.18.28.83.83,0,0,1-.58.25.83.83,0,0,1-.59-.25.88.88,0,0,1-.17-.28.77.77,0,0,1-.07-.34V45.82a.82.82,0,0,1,.3-.62.91.91,0,0,1,.33-.15,1.23,1.23,0,0,1,.39-.06h1.79a5.82,5.82,0,0,1,.95.07,2.35,2.35,0,0,1,.8.24,1.42,1.42,0,0,1,.56.5,1.53,1.53,0,0,1,.2.82,1.83,1.83,0,0,1-.07.53,1.14,1.14,0,0,1-.25.44,1.27,1.27,0,0,1-.44.34,2,2,0,0,1-.67.21v0a2.81,2.81,0,0,1,.49.1,1.11,1.11,0,0,1,.34.19.75.75,0,0,1,.23.27,1.88,1.88,0,0,1,.15.38,4.9,4.9,0,0,1,.1.5c0,.18,0,.4.06.63a1.28,1.28,0,0,1,0,.19,1.09,1.09,0,0,1,0,.18,1.25,1.25,0,0,1,0,.35.65.65,0,0,1-.12.28.52.52,0,0,1-.25.18.93.93,0,0,1-.4.07.62.62,0,0,1-.37-.11.76.76,0,0,1-.25-.28,1.66,1.66,0,0,1-.15-.41c0-.16-.06-.33-.08-.51s-.06-.47-.09-.64a1.14,1.14,0,0,0-.15-.43.58.58,0,0,0-.29-.22,1.48,1.48,0,0,0-.52-.07h-.91Zm.69-2.84.48,0a1.2,1.2,0,0,0,.43-.13.68.68,0,0,0,.32-.26.84.84,0,0,0,.12-.47.87.87,0,0,0-.12-.51.71.71,0,0,0-.31-.26,1.42,1.42,0,0,0-.44-.1,4.52,4.52,0,0,0-.53,0h-.67v1.77Zm0,0"/><path class="cls-1" d="M171.71,50.61a.94.94,0,0,1-.07.34.9.9,0,0,1-.18.28.87.87,0,0,1-.26.18.75.75,0,0,1-.33.07.83.83,0,0,1-.58-.25.75.75,0,0,1-.18-.28.93.93,0,0,1-.06-.34V49l-1.64-2.74a.8.8,0,0,1-.12-.27.78.78,0,0,1,0-.26.73.73,0,0,1,.06-.3.63.63,0,0,1,.16-.23.65.65,0,0,1,.23-.15A.67.67,0,0,1,169,45a.81.81,0,0,1,.43.14,1,1,0,0,1,.36.44l1.17,2.34h0l1.22-2.36a1,1,0,0,1,.36-.42A.76.76,0,0,1,173,45a.67.67,0,0,1,.24,0,.63.63,0,0,1,.2.13.53.53,0,0,1,.13.19.75.75,0,0,1,.05.26.71.71,0,0,1,0,.24,1,1,0,0,1-.12.27L171.71,49Zm0,0"/><path class="cls-1" d="M194.41,48.89a1.22,1.22,0,0,0,.1-.23l.1-.27c0-.09.07-.18.1-.27s.06-.18.09-.25a2,2,0,0,1,.09-.2.17.17,0,0,1,.1-.09h.15a.78.78,0,0,1,.22,0l.19.1a.7.7,0,0,1,.13.17.61.61,0,0,1,0,.24,2.07,2.07,0,0,1-.06.45,4.07,4.07,0,0,1-.14.52,4.38,4.38,0,0,1-.23.54,2.78,2.78,0,0,1-.29.48l.2.2.15.17.14.19c0,.07.06.13.08.19a.43.43,0,0,1,0,.19.63.63,0,0,1-.05.22.46.46,0,0,1-.13.18.54.54,0,0,1-.41.17.59.59,0,0,1-.33-.11,1.86,1.86,0,0,1-.35-.29l-.33-.34a2.75,2.75,0,0,1-.9.53,3.7,3.7,0,0,1-1.18.18,4.92,4.92,0,0,1-.67,0,4.15,4.15,0,0,1-.63-.16,2.81,2.81,0,0,1-.56-.25,2.22,2.22,0,0,1-.44-.37,1.59,1.59,0,0,1-.29-.49,1.64,1.64,0,0,1-.11-.6,1.5,1.5,0,0,1,.12-.6,1.64,1.64,0,0,1,.34-.5,2.55,2.55,0,0,1,.53-.43,4.82,4.82,0,0,1,.68-.37,3.92,3.92,0,0,1-.37-.34,2.72,2.72,0,0,1-.31-.38,1.77,1.77,0,0,1-.21-.41,1.25,1.25,0,0,1,.09-1.07,1.55,1.55,0,0,1,.46-.46,2,2,0,0,1,.65-.27,2.88,2.88,0,0,1,.78-.1,3.06,3.06,0,0,1,.74.09,2.33,2.33,0,0,1,.67.25,1.72,1.72,0,0,1,.48.45,1.12,1.12,0,0,1,.18.64,1.27,1.27,0,0,1-.09.47,1.82,1.82,0,0,1-.26.44,3.92,3.92,0,0,1-.4.42,5,5,0,0,1-.5.38l.57.59.56.58a1.49,1.49,0,0,0,.25-.07l.22-.08Zm-2.69-.38a3.35,3.35,0,0,0-.36.21A2.21,2.21,0,0,0,191,49a1.42,1.42,0,0,0-.25.31.64.64,0,0,0-.09.31.93.93,0,0,0,.1.45.91.91,0,0,0,.27.32,1.25,1.25,0,0,0,.4.2,1.85,1.85,0,0,0,.48.07,1.82,1.82,0,0,0,.7-.14,2.73,2.73,0,0,0,.62-.38Zm-.41-2.35a.63.63,0,0,0,.05.26,1.12,1.12,0,0,0,.16.28,1.64,1.64,0,0,0,.21.25l.23.22.28-.23.25-.25a2.63,2.63,0,0,0,.16-.26.54.54,0,0,0,.07-.27.49.49,0,0,0-.06-.25.65.65,0,0,0-.16-.17.74.74,0,0,0-.22-.1,1.09,1.09,0,0,0-.26,0,1.15,1.15,0,0,0-.26,0,.92.92,0,0,0-.23.09.56.56,0,0,0-.16.18.44.44,0,0,0-.06.25Zm0,0"/><path class="cls-1" d="M215.62,47.58a.54.54,0,0,1,.22.05.5.5,0,0,1,.19.13.59.59,0,0,1,.13.18.65.65,0,0,1,0,.45.8.8,0,0,1-.13.19.62.62,0,0,1-.19.12.54.54,0,0,1-.22,0h-2v1.86a.94.94,0,0,1-.07.34.75.75,0,0,1-.18.28.68.68,0,0,1-.26.18.71.71,0,0,1-.32.07.72.72,0,0,1-.33-.07.68.68,0,0,1-.26-.18A1.12,1.12,0,0,1,212,51a.93.93,0,0,1-.06-.34V45.82a.87.87,0,0,1,.08-.37,1,1,0,0,1,.23-.26,1.16,1.16,0,0,1,.34-.14,1.33,1.33,0,0,1,.4,0h2.77a.48.48,0,0,1,.23,0,.71.71,0,0,1,.18.12.57.57,0,0,1,.12.18.55.55,0,0,1,0,.46.57.57,0,0,1-.12.18.71.71,0,0,1-.18.12.64.64,0,0,1-.23,0H213.6v1.42Zm0,0"/><path class="cls-1" d="M227.94,45.86a1,1,0,0,1,.06-.34.71.71,0,0,1,.18-.27.7.7,0,0,1,.26-.19.71.71,0,0,1,.32-.07.72.72,0,0,1,.33.07.79.79,0,0,1,.26.19.71.71,0,0,1,.18.27,1,1,0,0,1,.06.34v3.42a2.52,2.52,0,0,1-.2,1,2.1,2.1,0,0,1-.58.74,2.56,2.56,0,0,1-.89.44,4,4,0,0,1-1.13.15,3.92,3.92,0,0,1-1.11-.15,2.58,2.58,0,0,1-.88-.43,1.92,1.92,0,0,1-.58-.74,2.25,2.25,0,0,1-.22-1V45.86a.8.8,0,0,1,.07-.34.71.71,0,0,1,.18-.27.76.76,0,0,1,.25-.19.78.78,0,0,1,.33-.07.66.66,0,0,1,.32.07.83.83,0,0,1,.44.46.8.8,0,0,1,.07.34v3.4a1.5,1.5,0,0,0,.1.55,1.16,1.16,0,0,0,.26.38,1.13,1.13,0,0,0,.36.22,1.18,1.18,0,0,0,.41.07,1.2,1.2,0,0,0,.42-.07,1,1,0,0,0,.36-.22,1.19,1.19,0,0,0,.27-.38,1.5,1.5,0,0,0,.1-.55Zm0,0"/><path class="cls-1" d="M238.76,51.48a.74.74,0,0,1-.38-.09.75.75,0,0,1-.25-.25,1.22,1.22,0,0,1-.14-.33,2.45,2.45,0,0,1,0-.38V46.17a3.28,3.28,0,0,1,0-.46.75.75,0,0,1,.45-.63A1.6,1.6,0,0,1,239,45h2.87a.52.52,0,0,1,.24,0,.67.67,0,0,1,.2.12.46.46,0,0,1,.13.18.55.55,0,0,1,0,.46.46.46,0,0,1-.13.18.67.67,0,0,1-.2.12.69.69,0,0,1-.24,0h-2.3V47.6h2.1a.69.69,0,0,1,.24,0,.67.67,0,0,1,.2.12.8.8,0,0,1,.13.19.43.43,0,0,1,.05.23.44.44,0,0,1-.05.22.59.59,0,0,1-.13.18.53.53,0,0,1-.2.13.67.67,0,0,1-.24,0h-2.1v1.56H242a.59.59,0,0,1,.23,0,.68.68,0,0,1,.18.13.57.57,0,0,1,.12.18.43.43,0,0,1,.05.23.44.44,0,0,1-.05.22.57.57,0,0,1-.12.18.68.68,0,0,1-.18.13.85.85,0,0,1-.23,0Zm0,0"/><path class="cls-1" d="M254.06,50.29a.59.59,0,0,1,.22.05.62.62,0,0,1,.32.32.59.59,0,0,1,.05.23.64.64,0,0,1-.05.23.59.59,0,0,1-.13.19.52.52,0,0,1-.19.12.59.59,0,0,1-.22,0H251a.73.73,0,0,1-.41-.11.81.81,0,0,1-.25-.27,1.3,1.3,0,0,1-.14-.39,3.42,3.42,0,0,1,0-.45v-4.4a.8.8,0,0,1,.07-.34.71.71,0,0,1,.18-.27.7.7,0,0,1,.26-.19A.71.71,0,0,1,251,45a.66.66,0,0,1,.32.07.83.83,0,0,1,.44.46.8.8,0,0,1,.07.34v4.43Zm0,0"/><path class="cls-1" d="M269.47,48.29a4.08,4.08,0,0,1,.24-1.45,3,3,0,0,1,.67-1.08,2.77,2.77,0,0,1,1-.68,3.38,3.38,0,0,1,1.3-.23,6.65,6.65,0,0,1,1,.06,3.06,3.06,0,0,1,.69.19,1.23,1.23,0,0,1,.41.29.55.55,0,0,1,.13.36.51.51,0,0,1-.05.22.56.56,0,0,1-.14.16.72.72,0,0,1-.2.09.76.76,0,0,1-.21,0h-.13l-.12,0-.32-.09-.31-.07-.29,0a1.62,1.62,0,0,0-.31,0,1.81,1.81,0,0,0-.63.1,1.12,1.12,0,0,0-.52.35,1.86,1.86,0,0,0-.35.69,4.22,4.22,0,0,0-.13,1.11,3.71,3.71,0,0,0,.11.93,2.3,2.3,0,0,0,.3.71,1.53,1.53,0,0,0,.51.44,1.62,1.62,0,0,0,.72.15,1.37,1.37,0,0,0,.34,0l.36-.09.39-.12.38-.15h.14a.46.46,0,0,1,.21,0,.57.57,0,0,1,.16.11.48.48,0,0,1,.1.17.64.64,0,0,1,0,.2.46.46,0,0,1-.11.32.86.86,0,0,1-.3.26,1.71,1.71,0,0,1-.43.2,4.13,4.13,0,0,1-.5.15l-.52.09-.47,0a3.63,3.63,0,0,1-1.24-.22,3,3,0,0,1-1-.65,3,3,0,0,1-.66-1.05,4,4,0,0,1-.24-1.43Zm0,0"/><path class="cls-1" d="M285.17,48.24a3.29,3.29,0,0,0,.35,1.68,1.37,1.37,0,0,0,2.21,0,3.18,3.18,0,0,0,.36-1.68,4.58,4.58,0,0,0-.09-1,2.56,2.56,0,0,0-.26-.71,1.35,1.35,0,0,0-.46-.43,1.48,1.48,0,0,0-1.3,0,1.35,1.35,0,0,0-.46.43,2.56,2.56,0,0,0-.26.71,4.58,4.58,0,0,0-.09,1Zm-1.74,0a4.56,4.56,0,0,1,.2-1.36,3.15,3.15,0,0,1,.6-1.08,2.65,2.65,0,0,1,1-.7,3.62,3.62,0,0,1,1.41-.25,3.7,3.7,0,0,1,1.38.24,2.75,2.75,0,0,1,1,.69,3,3,0,0,1,.6,1.08,4.34,4.34,0,0,1,.21,1.38,4.53,4.53,0,0,1-.2,1.37,2.73,2.73,0,0,1-1.6,1.78,3.75,3.75,0,0,1-1.39.25,3.45,3.45,0,0,1-1.37-.25,2.73,2.73,0,0,1-1-.68,3.12,3.12,0,0,1-.61-1.07,4.34,4.34,0,0,1-.21-1.4Zm0,0"/><path class="cls-1" d="M299.77,50.78a.6.6,0,0,1-.06.27.91.91,0,0,1-.15.23.64.64,0,0,1-.22.14.67.67,0,0,1-.28.06.6.6,0,0,1-.27-.06.55.55,0,0,1-.22-.14.57.57,0,0,1-.15-.23.6.6,0,0,1-.06-.27V45.91a1.24,1.24,0,0,1,.07-.4.88.88,0,0,1,.17-.28.76.76,0,0,1,.26-.18.83.83,0,0,1,.32-.06.74.74,0,0,1,.28.06,1.16,1.16,0,0,1,.26.15,1.6,1.6,0,0,1,.24.22,2,2,0,0,1,.22.27l2.64,3.57V45.69a.62.62,0,0,1,.05-.27.72.72,0,0,1,.37-.37.6.6,0,0,1,.27-.06.67.67,0,0,1,.28.06.66.66,0,0,1,.22.15.71.71,0,0,1,.15.22.63.63,0,0,1,.06.27v4.55c0,.16,0,.32,0,.47a1.12,1.12,0,0,1-.12.39.6.6,0,0,1-.24.28.8.8,0,0,1-.41.1.63.63,0,0,1-.27-.06.89.89,0,0,1-.25-.14,1.26,1.26,0,0,1-.24-.22,3.11,3.11,0,0,1-.23-.28l-2.66-3.61Zm0,0"/><path class="cls-1" d="M312.55,46.17a.64.64,0,0,1-.24,0,.74.74,0,0,1-.21-.13.46.46,0,0,1-.13-.18.5.5,0,0,1-.06-.24.46.46,0,0,1,.06-.22.43.43,0,0,1,.13-.19.57.57,0,0,1,.21-.13.64.64,0,0,1,.24,0h4.08a.7.7,0,0,1,.25,0,.63.63,0,0,1,.2.13.55.55,0,0,1,.14.19.59.59,0,0,1,0,.22.64.64,0,0,1,0,.24.62.62,0,0,1-.14.18.86.86,0,0,1-.2.13.69.69,0,0,1-.25,0h-1.2v4.44a.93.93,0,0,1-.06.34.9.9,0,0,1-.18.28.87.87,0,0,1-.26.18.75.75,0,0,1-.33.07.71.71,0,0,1-.32-.07.68.68,0,0,1-.26-.18.75.75,0,0,1-.18-.28.94.94,0,0,1-.07-.34V46.17Zm0,0"/><path class="cls-1" d="M326.56,50.61a.93.93,0,0,1-.06.34.9.9,0,0,1-.18.28.76.76,0,0,1-.26.18.72.72,0,0,1-.33.07.71.71,0,0,1-.32-.07.68.68,0,0,1-.26-.18A.75.75,0,0,1,325,51a.93.93,0,0,1-.06-.34V45.82a.68.68,0,0,1,.08-.36.63.63,0,0,1,.22-.26.86.86,0,0,1,.32-.15,1.32,1.32,0,0,1,.39-.06h1.8a5.78,5.78,0,0,1,.94.07,2.41,2.41,0,0,1,.81.24,1.39,1.39,0,0,1,.55.5,1.45,1.45,0,0,1,.21.82,1.84,1.84,0,0,1-.08.53,1.26,1.26,0,0,1-.24.44,1.31,1.31,0,0,1-.45.34,2,2,0,0,1-.67.21v0a2.63,2.63,0,0,1,.49.1,1.31,1.31,0,0,1,.35.19.87.87,0,0,1,.23.27,1.42,1.42,0,0,1,.14.38,4.9,4.9,0,0,1,.1.5c0,.18,0,.4.06.63a1.37,1.37,0,0,1,0,.19v.18a1.83,1.83,0,0,1,0,.35.66.66,0,0,1-.13.28.55.55,0,0,1-.24.18,1,1,0,0,1-.4.07.66.66,0,0,1-.38-.11.85.85,0,0,1-.25-.28,1.65,1.65,0,0,1-.14-.41,3.86,3.86,0,0,1-.09-.51c0-.25-.06-.47-.09-.64a1.14,1.14,0,0,0-.15-.43.58.58,0,0,0-.29-.22,1.48,1.48,0,0,0-.52-.07h-.91Zm.69-2.84.48,0a1.25,1.25,0,0,0,.44-.13.65.65,0,0,0,.31-.26.84.84,0,0,0,.12-.47,1,1,0,0,0-.11-.51.71.71,0,0,0-.31-.26,1.49,1.49,0,0,0-.44-.1,4.61,4.61,0,0,0-.53,0h-.67v1.77Zm0,0"/><path class="cls-1" d="M339.94,48.24a3.18,3.18,0,0,0,.36,1.68,1.21,1.21,0,0,0,1.1.56,1.24,1.24,0,0,0,1.1-.56,3.18,3.18,0,0,0,.36-1.68,4.58,4.58,0,0,0-.09-1,2.06,2.06,0,0,0-.26-.71,1.26,1.26,0,0,0-.46-.43,1.48,1.48,0,0,0-1.3,0,1.24,1.24,0,0,0-.45.43,2.29,2.29,0,0,0-.27.71,4.58,4.58,0,0,0-.09,1Zm-1.73,0a4.26,4.26,0,0,1,.2-1.36A3,3,0,0,1,339,45.8a2.78,2.78,0,0,1,1-.7,3.54,3.54,0,0,1,1.4-.25,3.7,3.7,0,0,1,1.38.24,2.75,2.75,0,0,1,1,.69,3,3,0,0,1,.61,1.08,4.65,4.65,0,0,1,.2,1.38,4.53,4.53,0,0,1-.2,1.37,2.85,2.85,0,0,1-.6,1.08,2.78,2.78,0,0,1-1,.7,3.71,3.71,0,0,1-1.39.25,3.45,3.45,0,0,1-1.37-.25,2.62,2.62,0,0,1-1-.68,3,3,0,0,1-.62-1.07,4.34,4.34,0,0,1-.2-1.4Zm0,0"/><path class="cls-1" d="M356.66,50.29a.59.59,0,0,1,.23.05.62.62,0,0,1,.32.32.59.59,0,0,1,0,.23.62.62,0,0,1,0,.23.59.59,0,0,1-.13.19.52.52,0,0,1-.19.12.59.59,0,0,1-.23,0H353.6a.71.71,0,0,1-.65-.38,1.3,1.3,0,0,1-.14-.39,3.42,3.42,0,0,1,0-.45v-4.4a.8.8,0,0,1,.07-.34.83.83,0,0,1,.17-.27.91.91,0,0,1,.26-.19.78.78,0,0,1,.33-.07.68.68,0,0,1,.32.07.83.83,0,0,1,.44.46.8.8,0,0,1,.07.34v4.43Zm0,0"/><path class="cls-2" d="M67.56,15.1V32.57c0,.88-.54,1.33-1.61,1.33s-1.57-.45-1.57-1.33V15.1H55.69c-.78,0-1.18-.43-1.18-1.3a1.06,1.06,0,0,1,1.18-1.21H76.25c.74,0,1.11.4,1.11,1.21s-.37,1.3-1.11,1.3Zm0,0"/><path class="cls-1" d="M87.84,20q-4.22,0-4.21,2.49V32.6c0,.86-.49,1.3-1.48,1.3s-1.49-.44-1.49-1.3V22.49q0-4.9,7.48-4.91h1.33c.75,0,1.12.41,1.12,1.21S90.28,20,89.65,20Zm0,0"/><path class="cls-1" d="M113.81,24.85H100.28c-2.3,0-3.45.72-3.45,2.18v2.2c0,1.38,1.23,2.06,3.69,2.06h9.72q3.57,0,3.57-3.12ZM116.59,29q0,4.73-6.87,4.73h-8.63c-4.84,0-7.26-1.52-7.26-4.54V27.12q0-4.73,7.11-4.73h12.84c-.21-1.59-1.4-2.39-3.6-2.39H106.6c-.7,0-1.06-.41-1.06-1.24s.36-1.18,1.06-1.18h3.12c4.58,0,6.87,1.62,6.87,4.84Zm0,0"/><path class="cls-1" d="M144,32.6c0,.86-.5,1.3-1.49,1.3S141,33.46,141,32.6V22c0-1.31-1.32-2-4-2h-7.39c-2.7,0-4.06.66-4.06,2V32.6c0,.86-.48,1.3-1.45,1.3s-1.48-.44-1.48-1.3V22q0-4.38,7.81-4.39h5.69Q144,17.58,144,22Zm0,0"/><path class="cls-1" d="M168.9,29.45c0,2.86-2.07,4.3-6.21,4.3H150.28c-.87,0-1.3-.4-1.3-1.18a1.14,1.14,0,0,1,1.3-1.28H163.2c1.78,0,2.67-.61,2.67-1.84v-1c0-1.19-1-1.79-3-1.79H156q-6.84,0-6.84-4.08V21.52q0-3.94,6.51-3.94h3.45c.85,0,1.27.41,1.27,1.21S160,20,159.15,20H155c-1.93,0-2.9.51-2.9,1.52v1c0,1.17,1.14,1.75,3.42,1.75h7q6.39,0,6.39,4.18Zm0,0"/><path class="cls-1" d="M177.28,20V32.6c0,.86-.47,1.3-1.42,1.3s-1.48-.44-1.48-1.3V20h-1.46a1.08,1.08,0,0,1-1.21-1.24,1.06,1.06,0,0,1,1.21-1.18h1.46V13.74c0-.87.5-1.3,1.51-1.3s1.39.43,1.39,1.3v3.84h5.9a1.07,1.07,0,0,1,1.21,1.21A1.07,1.07,0,0,1,183.18,20Zm0,0"/><path class="cls-1" d="M189.42,24.57h15.8V22.18c0-1.45-1.13-2.18-3.39-2.18h-7.9q-4.52,0-4.51,2.3Zm18.64,1.18c0,.91-.43,1.37-1.3,1.37H189.42v2c0,1.46,1.5,2.18,4.51,2.18h3.23a1.09,1.09,0,0,1,1.25,1.21,1.11,1.11,0,0,1-1.25,1.25h-2.48q-8.19,0-8.2-5v-6.2q0-5,8.11-5h6.66q6.81,0,6.81,4.3Zm0,0"/><path class="cls-1" d="M216.78,32.6c0,.86-.49,1.3-1.46,1.3s-1.48-.44-1.48-1.3V13.74c0-.87.49-1.3,1.46-1.3s1.48.43,1.48,1.3Zm0,0"/><path class="cls-1" d="M225.65,24.57h15.8V22.18c0-1.45-1.13-2.18-3.39-2.18h-7.9q-4.51,0-4.51,2.3Zm18.64,1.18c0,.91-.43,1.37-1.3,1.37H225.65v2c0,1.46,1.5,2.18,4.51,2.18h3.24a1.09,1.09,0,0,1,1.24,1.21,1.1,1.1,0,0,1-1.24,1.25h-2.49q-8.19,0-8.2-5v-6.2q0-5,8.11-5h6.66q6.81,0,6.81,4.3Zm0,0"/><path class="cls-1" d="M279.83,32.6c0,.86-.5,1.3-1.49,1.3s-1.45-.44-1.45-1.3V22.3q0-2.3-4.78-2.3-5.66,0-5.66,2.76V32.6c0,.86-.47,1.3-1.42,1.3s-1.54-.44-1.54-1.3V22.76q0-2.76-5.64-2.76c-3.22,0-4.84.78-4.84,2.33V32.6c0,.86-.49,1.3-1.48,1.3s-1.46-.44-1.46-1.3V22.7q0-5.11,7.78-5.12,5.73,0,7.24,2.67,1.55-2.67,7-2.67,7.71,0,7.72,5.12Zm0,0"/><path class="cls-1" d="M288.73,24.57h15.8V22.18c0-1.45-1.13-2.18-3.39-2.18h-7.9q-4.51,0-4.51,2.3Zm18.64,1.18c0,.91-.43,1.37-1.3,1.37H288.73v2c0,1.46,1.5,2.18,4.51,2.18h3.24a1.09,1.09,0,0,1,1.24,1.21,1.1,1.1,0,0,1-1.24,1.25H294q-8.21,0-8.2-5v-6.2q0-5,8.11-5h6.66q6.81,0,6.81,4.3Zm0,0"/><path class="cls-1" d="M317,20V32.6c0,.86-.48,1.3-1.42,1.3s-1.49-.44-1.49-1.3V20h-1.45a1.08,1.08,0,0,1-1.21-1.24,1.06,1.06,0,0,1,1.21-1.18h1.45V13.74c0-.87.51-1.3,1.51-1.3s1.4.43,1.4,1.3v3.84h5.9a1.07,1.07,0,0,1,1.21,1.21A1.07,1.07,0,0,1,322.93,20Zm0,0"/><path class="cls-1" d="M334.46,20c-2.8,0-4.21.83-4.21,2.49V32.6c0,.86-.49,1.3-1.48,1.3s-1.48-.44-1.48-1.3V22.49q0-4.9,7.48-4.91h1.33c.74,0,1.12.41,1.12,1.21S336.9,20,336.28,20Zm0,0"/><path class="cls-1" d="M344.57,15.25c0,1-.69,1.55-2.06,1.55s-1.94-.52-1.94-1.55.65-1.54,1.94-1.54,2.06.51,2.06,1.54Zm-.51,17.35c0,.86-.48,1.3-1.43,1.3s-1.42-.44-1.42-1.3V19.76c0-.83.45-1.24,1.36-1.24s1.49.41,1.49,1.24Zm0,0"/><path class="cls-1" d="M359,24l8.11-6.17a1.33,1.33,0,0,1,.94-.4,1.29,1.29,0,0,1,1,.47,1.47,1.47,0,0,1,.41,1,1.27,1.27,0,0,1-.57,1l-7.63,5.78,7.63,5.87a1.11,1.11,0,0,1,.45.88,1.57,1.57,0,0,1-.1.58,1.66,1.66,0,0,1-.29.48,2,2,0,0,1-.41.36.83.83,0,0,1-.5.16,1.13,1.13,0,0,1-.76-.37L359,27.39l-8.23,6.23a1.07,1.07,0,0,1-.76.31,1.15,1.15,0,0,1-.92-.49,1.64,1.64,0,0,1-.38-1,1,1,0,0,1,.12-.47,1.57,1.57,0,0,1,.33-.41l7.6-5.87-7.6-5.78a1.32,1.32,0,0,1-.6-1,1.35,1.35,0,0,1,.42-1,1.41,1.41,0,0,1,1-.41,2.24,2.24,0,0,1,.48.06.94.94,0,0,1,.49.28Zm0,0"/><path class="cls-2" d="M47.75,52a3.39,3.39,0,1,1,3.38-3.39A3.39,3.39,0,0,1,47.75,52Zm0-6.14a2.76,2.76,0,1,0,2.76,2.75A2.76,2.76,0,0,0,47.75,45.83Z"/><path class="cls-2" d="M47.75,40.93a3.38,3.38,0,1,1,3.38-3.38A3.38,3.38,0,0,1,47.75,40.93Zm0-6.14a2.76,2.76,0,1,0,2.76,2.76A2.77,2.77,0,0,0,47.75,34.79Z"/><path class="cls-2" d="M47.75,18.87a3.39,3.39,0,1,1,3.38-3.38A3.39,3.39,0,0,1,47.75,18.87Zm0-6.14a2.76,2.76,0,1,0,2.76,2.76A2.77,2.77,0,0,0,47.75,12.73Z"/><path class="cls-2" d="M36.8,52a3.39,3.39,0,1,1,3.38-3.39A3.39,3.39,0,0,1,36.8,52Zm0-6.14a2.76,2.76,0,1,0,2.76,2.75A2.76,2.76,0,0,0,36.8,45.83Z"/><path class="cls-2" d="M36.8,29.9a3.38,3.38,0,1,1,3.38-3.38A3.39,3.39,0,0,1,36.8,29.9Zm0-6.14a2.76,2.76,0,1,0,2.76,2.76A2.77,2.77,0,0,0,36.8,23.76Z"/><path class="cls-2" d="M36.8,18.87a3.39,3.39,0,1,1,3.38-3.38A3.39,3.39,0,0,1,36.8,18.87Zm0-6.14a2.76,2.76,0,1,0,2.76,2.76A2.77,2.77,0,0,0,36.8,12.73Z"/><path class="cls-2" d="M25.86,52a3.39,3.39,0,1,1,3.38-3.39A3.39,3.39,0,0,1,25.86,52Zm0-6.14a2.76,2.76,0,1,0,2.75,2.75A2.75,2.75,0,0,0,25.86,45.83Z"/><path class="cls-2" d="M25.86,40.93a3.38,3.38,0,1,1,3.38-3.38A3.38,3.38,0,0,1,25.86,40.93Zm0-6.14a2.76,2.76,0,1,0,2.75,2.76A2.76,2.76,0,0,0,25.86,34.79Z"/><path class="cls-2" d="M25.86,18.87a3.39,3.39,0,1,1,3.38-3.38A3.39,3.39,0,0,1,25.86,18.87Zm0-6.14a2.76,2.76,0,1,0,2.75,2.76A2.76,2.76,0,0,0,25.86,12.73Z"/><path class="cls-2" d="M14.91,52a3.39,3.39,0,1,1,3.38-3.39A3.39,3.39,0,0,1,14.91,52Zm0-6.14a2.76,2.76,0,1,0,2.76,2.75A2.76,2.76,0,0,0,14.91,45.83Z"/><path class="cls-2" d="M14.91,29.9a3.38,3.38,0,1,1,3.38-3.38A3.39,3.39,0,0,1,14.91,29.9Zm0-6.14a2.76,2.76,0,1,0,2.76,2.76A2.77,2.77,0,0,0,14.91,23.76Z"/><path class="cls-2" d="M14.91,18.87a3.39,3.39,0,1,1,3.38-3.38A3.39,3.39,0,0,1,14.91,18.87Zm0-6.14a2.76,2.76,0,1,0,2.76,2.76A2.77,2.77,0,0,0,14.91,12.73Z"/><path class="cls-3" d="M47.75,23.45a3.08,3.08,0,0,0-2.38,5l-6.64,6.69a3.08,3.08,0,0,0-3.86,0l-6.64-6.69a3.07,3.07,0,0,0-2.37-5,3.08,3.08,0,0,0-2.38,5l-6.64,6.69a3.1,3.1,0,0,0-1.93-.68A3.07,3.07,0,1,0,18,37.55a3,3,0,0,0-.7-1.95l6.65-6.69a3.06,3.06,0,0,0,3.85,0l6.65,6.69a3,3,0,0,0-.7,1.95,3.07,3.07,0,0,0,6.14,0,3,3,0,0,0-.7-1.95l6.65-6.69a3.1,3.1,0,0,0,1.93.68,3.07,3.07,0,0,0,0-6.14Z"/></svg>